# File produced by Open Asset Import Library (http://www.assimp.sf.net)
# (assimp v3.1.187496374)

mtllib FRL3.obj.mtl

# 52 vertex positions
v  0.00032 0.00077 0.00012
v  0.00032 0.00077 -0.00012
v  0.00032 7.34627e-11 0.00012
v  0.00032 7.34627e-11 -0.00012
v  -0.00032 0.00077 0.00012
v  -0.00032 0.00077 -0.00012
v  -0.00032 7.34627e-11 0.00012
v  -0.00032 7.34627e-11 -0.00012
v  -0.00123 7.34627e-11 0.00012
v  -0.00123 7.34627e-11 -0.00012
v  -0.00123 0.00117 0.00012
v  -0.00123 0.00117 -0.00012
v  0.00123 0.00117 0.00012
v  0.00123 0.00117 -0.00012
v  0.00123 7.34627e-11 0.00012
v  0.00123 7.34627e-11 -0.00012
v  0.00075 2.58684e-10 0.00058
v  0.00075 0.00024 0.00058
v  -0.00075 2.58684e-10 0.00058
v  -0.00075 0.00024 0.00058
v  0.00075 2.58684e-10 0.00012
v  0.00075 0.00024 0.00012
v  0.00031 2.58684e-10 0.00012
v  0.00031 0.00024 0.00012
v  0.00031 2.58684e-10 -0.00046
v  0.00031 0.00024 -0.00046
v  -0.00031 2.58684e-10 -0.00046
v  -0.00031 0.00024 -0.00046
v  -0.00031 2.58684e-10 0.00012
v  -0.00031 0.00024 0.00012
v  -0.00075 2.58684e-10 0.00012
v  -0.00075 0.00024 0.00012
v  -0.00175 -0.00024 -0.00032
v  -0.00175 2.23517e-10 -0.00032
v  -0.00175 -0.00024 -0.00182
v  -0.00175 2.23517e-10 -0.00182
v  -0.00075 -0.00024 -0.00032
v  -0.00075 2.23517e-10 -0.00032
v  -0.00075 -0.00024 0.00058
v  -0.00075 2.23517e-10 0.00058
v  0.00075 -0.00024 0.00058
v  0.00075 2.23517e-10 0.00058
v  0.00075 -0.00024 -0.00052
v  0.00075 2.23517e-10 -0.00052
v  0.0018 -0.00024 -0.00052
v  0.0018 2.23517e-10 -0.00052
v  0.0018 -0.00024 -0.00032
v  0.0018 2.23517e-10 -0.00032
v  0.00225 -0.00024 -0.00032
v  0.00225 2.23517e-10 -0.00032
v  0.00225 -0.00024 -0.00182
v  0.00225 2.23517e-10 -0.00182

# 0 UV coordinates

# 9 vertex normals
vn -1 -0 -0
vn 0 -1 0
vn 1 0 0
vn 0 1 0
vn 0 0 1
vn 0 0 -1
vn 0 1 -9.25186e-15
vn -1.8839e-30 1 -9.25186e-15
vn 0 1 -1.06752e-14

# Mesh '<STL_BINARY>' with 92 faces
g <STL_BINARY>
usemtl DefaultMaterial
f  1//1 2//1 3//1
f  3//1 2//1 4//1
f  5//2 6//2 1//2
f  1//2 6//2 2//2
f  7//3 8//3 5//3
f  5//3 8//3 6//3
f  9//2 10//2 7//2
f  7//2 10//2 8//2
f  11//1 12//1 9//1
f  9//1 12//1 10//1
f  13//4 14//4 11//4
f  11//4 14//4 12//4
f  15//3 16//3 13//3
f  13//3 16//3 14//3
f  15//2 3//2 16//2
f  16//2 3//2 4//2
f  3//5 15//5 1//5
f  1//5 15//5 13//5
f  1//5 13//5 5//5
f  5//5 13//5 11//5
f  5//5 11//5 7//5
f  7//5 11//5 9//5
f  8//6 10//6 6//6
f  6//6 10//6 12//6
f  6//6 12//6 2//6
f  2//6 12//6 14//6
f  2//6 14//6 4//6
f  4//6 14//6 16//6
f  17//5 18//5 19//5
f  19//5 18//5 20//5
f  21//3 22//3 17//3
f  17//3 22//3 18//3
f  23//6 24//6 21//6
f  21//6 24//6 22//6
f  25//3 26//3 23//3
f  23//3 26//3 24//3
f  27//6 28//6 25//6
f  25//6 28//6 26//6
f  29//1 30//1 27//1
f  27//1 30//1 28//1
f  31//6 32//6 29//6
f  29//6 32//6 30//6
f  31//1 19//1 32//1
f  32//1 19//1 20//1
f  19//2 31//2 17//2
f  17//2 31//2 29//2
f  21//2 17//2 23//2
f  23//2 17//2 29//2
f  23//2 29//2 25//2
f  25//2 29//2 27//2
f  18//4 22//4 20//4
f  20//4 22//4 24//4
f  32//4 20//4 30//4
f  30//4 20//4 24//4
f  30//4 24//4 28//4
f  28//4 24//4 26//4
f  33//1 34//1 35//1
f  35//1 34//1 36//1
f  37//5 38//5 33//5
f  33//5 38//5 34//5
f  39//1 40//1 37//1
f  37//1 40//1 38//1
f  41//5 42//5 39//5
f  39//5 42//5 40//5
f  43//3 44//3 41//3
f  41//3 44//3 42//3
f  45//5 46//5 43//5
f  43//5 46//5 44//5
f  47//1 48//1 45//1
f  45//1 48//1 46//1
f  49//5 50//5 47//5
f  47//5 50//5 48//5
f  51//3 52//3 49//3
f  49//3 52//3 50//3
f  51//6 35//6 52//6
f  52//6 35//6 36//6
f  37//2 33//2 35//2
f  43//2 39//2 37//2
f  43//2 37//2 51//2
f  51//2 37//2 35//2
f  51//2 45//2 43//2
f  41//2 39//2 43//2
f  49//2 47//2 51//2
f  51//2 47//2 45//2
f  36//7 34//7 52//7
f  52//7 34//7 38//8
f  46//4 50//4 52//7
f  46//4 52//7 44//9
f  44//9 52//7 38//8
f  44//9 38//8 42//4
f  42//4 38//8 40//4
f  48//4 50//4 46//4

