# File produced by Open Asset Import Library (http://www.assimp.sf.net)
# (assimp v3.1.187496374)

mtllib RRS2.obj.mtl

# 28 vertex positions
v  0.00012 -0.00607215 0.000751768
v  -0.00012 -0.00607215 0.000751768
v  0.00012 -0.00744215 0.000751768
v  -0.00012 -0.00744215 0.000751768
v  0.00012 -0.00607215 0.00337177
v  -0.00012 -0.00607215 0.00337177
v  0.00012 -0.00744215 0.00337177
v  -0.00012 -0.00744215 0.00337177
v  0.00012 -0.00744215 0.00286177
v  -0.00012 -0.00744215 0.00286177
v  0.00012 -0.008 0.00286177
v  -0.00012 -0.008 0.00286177
v  0.00012 -0.008 0.00376177
v  -0.00012 -0.008 0.00376177
v  0.00012 -0.00528 0.00376177
v  -0.00012 -0.00528 0.00376177
v  0.00012 3.7998e-10 0.000871464
v  -0.00012 3.7998e-10 0.000871464
v  0.00012 3.7998e-10 -0.000871464
v  -0.00012 3.7998e-10 -0.000871464
v  0.00012 -0.00498 0.000361768
v  -0.00012 -0.00498 0.000361768
v  0.00012 -0.008 0.000361768
v  -0.00012 -0.008 0.000361768
v  0.00012 -0.008 0.00126177
v  -0.00012 -0.008 0.00126177
v  0.00012 -0.00744215 0.00126177
v  -0.00012 -0.00744215 0.00126177

# 0 UV coordinates

# 11 vertex normals
vn 0 0 1
vn -0 -1 -0
vn 0 0 -1
vn 0 1 0
vn -5.55309e-14 0.480171 0.877175
vn 0 0.480171 0.877175
vn -1.15648e-13 1 0
vn -0 -0.240376 -0.97068
vn 2.77991e-14 -0.240376 -0.97068
vn 1 0 0
vn -1 0 0

# Mesh '<STL_BINARY>' with 52 faces
g <STL_BINARY>
usemtl DefaultMaterial
f  1//1 2//1 3//1
f  3//1 2//1 4//1
f  5//2 6//2 1//2
f  1//2 6//2 2//2
f  7//3 8//3 5//3
f  5//3 8//3 6//3
f  9//4 10//4 7//4
f  7//4 10//4 8//4
f  11//3 12//3 9//3
f  9//3 12//3 10//3
f  13//2 14//2 11//2
f  11//2 14//2 12//2
f  15//1 16//1 13//1
f  13//1 16//1 14//1
f  17//5 18//5 15//5
f  15//5 18//5 16//6
f  19//7 20//7 17//7
f  17//7 20//7 18//7
f  21//8 22//8 19//8
f  19//8 22//8 20//9
f  23//3 24//3 21//3
f  21//3 24//3 22//3
f  25//2 26//2 23//2
f  23//2 26//2 24//2
f  27//1 28//1 25//1
f  25//1 28//1 26//1
f  27//4 3//4 28//4
f  28//4 3//4 4//4
f  21//10 19//10 17//10
f  1//10 23//10 21//10
f  1//10 21//10 15//10
f  15//10 21//10 17//10
f  15//10 5//10 1//10
f  3//10 23//10 1//10
f  3//10 25//10 23//10
f  27//10 25//10 3//10
f  15//10 7//10 5//10
f  13//10 7//10 15//10
f  13//10 9//10 7//10
f  11//10 9//10 13//10
f  26//11 28//11 24//11
f  24//11 28//11 4//11
f  24//11 4//11 22//11
f  22//11 4//11 2//11
f  22//11 2//11 6//11
f  6//11 16//11 22//11
f  22//11 16//11 20//11
f  8//11 14//11 6//11
f  6//11 14//11 16//11
f  16//11 18//11 20//11
f  8//11 12//11 14//11
f  10//11 12//11 8//11

