# File produced by Open Asset Import Library (http://www.assimp.sf.net)
# (assimp v3.1.187496374)

mtllib FRS1.obj.mtl

# 28 vertex positions
v  0.00012 -6.1169e-05 0.00082825
v  -0.00012 -6.1169e-05 0.00082825
v  0.00012 -0.000461168 0.00082825
v  -0.00012 -0.000461168 0.00082825
v  0.00012 -6.1169e-05 0.00030325
v  -0.00012 -6.1169e-05 0.00030325
v  0.00012 0.000438831 0.00030325
v  -0.00012 0.000438831 0.00030325
v  0.00012 0.000438831 0.00082825
v  -0.00012 0.000438831 0.00082825
v  0.00012 0.000838831 0.00082825
v  -0.00012 0.000838831 0.00082825
v  0.00012 0.000838831 -0.00082175
v  -0.00012 0.000838831 -0.00082175
v  0.00012 0.000438831 -0.00082175
v  -0.00012 0.000438831 -0.00082175
v  0.00012 0.000438831 -0.00049675
v  -0.00012 0.000438831 -0.00049675
v  0.00012 -6.1169e-05 -0.00049675
v  -0.00012 -6.1169e-05 -0.00049675
v  0.00012 -6.1169e-05 -0.00082175
v  -0.00012 -6.1169e-05 -0.00082175
v  0.00012 -0.000461168 -0.00082175
v  -0.00012 -0.000461168 -0.00082175
v  0.00012 -0.000771168 -0.000744982
v  -0.00012 -0.000771168 -0.000744982
v  0.00012 -0.000771168 0.000997946
v  -0.00012 -0.000771168 0.000997946

# 0 UV coordinates

# 8 vertex normals
vn 0 0 1
vn 0 1 0
vn -0 -1 -0
vn 0 0 -1
vn -0 -0.240376 -0.97068
vn 0 0.480171 0.877175
vn 1 0 0
vn -1 0 0

# Mesh '<STL_BINARY>' with 52 faces
g <STL_BINARY>
usemtl DefaultMaterial
f  1//1 2//1 3//1
f  3//1 2//1 4//1
f  5//2 6//2 1//2
f  1//2 6//2 2//2
f  7//1 8//1 5//1
f  5//1 8//1 6//1
f  9//3 10//3 7//3
f  7//3 10//3 8//3
f  11//1 12//1 9//1
f  9//1 12//1 10//1
f  13//2 14//2 11//2
f  11//2 14//2 12//2
f  15//4 16//4 13//4
f  13//4 16//4 14//4
f  17//3 18//3 15//3
f  15//3 18//3 16//3
f  19//4 20//4 17//4
f  17//4 20//4 18//4
f  21//2 22//2 19//2
f  19//2 22//2 20//2
f  23//4 24//4 21//4
f  21//4 24//4 22//4
f  25//5 26//5 23//5
f  23//5 26//5 24//5
f  27//3 28//3 25//3
f  25//3 28//3 26//3
f  27//6 3//6 28//6
f  28//6 3//6 4//6
f  3//7 27//7 19//7
f  1//7 3//7 5//7
f  5//7 3//7 19//7
f  23//7 19//7 27//7
f  23//7 27//7 25//7
f  21//7 19//7 23//7
f  5//7 19//7 7//7
f  7//7 19//7 17//7
f  13//7 9//7 7//7
f  7//7 17//7 13//7
f  13//7 17//7 15//7
f  11//7 9//7 13//7
f  8//8 10//8 12//8
f  18//8 6//8 8//8
f  18//8 8//8 14//8
f  14//8 8//8 12//8
f  14//8 16//8 18//8
f  20//8 6//8 18//8
f  4//8 2//8 6//8
f  20//8 4//8 6//8
f  20//8 22//8 28//8
f  28//8 4//8 20//8
f  28//8 22//8 24//8
f  28//8 24//8 26//8

