# File produced by Open Asset Import Library (http://www.assimp.sf.net)
# (assimp v3.1.187496374)

mtllib RLL4.obj.mtl

# 104 vertex positions
v  0.00542336 -0.00036 -0.00392533
v  0.00579012 -0.00036 -0.00429209
v  0.00542336 -0.00012 -0.00392533
v  0.00579012 -0.00012 -0.00429209
v  0.00577336 -0.00036 -0.00357533
v  0.00577336 -0.00012 -0.00357533
v  0.00515 -0.00036 -0.00295197
v  0.00515 -0.00012 -0.00295197
v  0.00515 -0.00036 -0.00085
v  0.00515 -0.00012 -0.00085
v  0.00436781 -0.00036 -0.00085
v  0.00436781 -0.00012 -0.00085
v  0.00436781 -0.00036 -0.00454882
v  0.00436781 -0.00012 -0.00454882
v  0.00610102 -0.00036 -0.00454882
v  0.00610102 -0.00012 -0.00454882
v  0.00642393 -0.00036 -0.00422591
v  0.00642393 -0.00012 -0.00422591
v  0.00614012 -0.00036 -0.00394209
v  0.00614012 -0.00012 -0.00394209
v  0.003076 0.0027223 -0.0012563
v  0.0029063 0.0027223 -0.001426
v  0.002896 0.00246774 -0.0010763
v  0.0027263 0.00246774 -0.001246
v  0.002996 0.00283544 -0.0011763
v  0.0028263 0.00283544 -0.001346
v  0.002831 0.0026021 -0.0010113
v  0.0026613 0.0026021 -0.001181
v  0.002446 0.00338698 -0.000626295
v  0.0022763 0.00338698 -0.000796001
v  -8.48526e-05 0.00498337 0.00156515
v  8.4853e-05 0.00498337 0.00173485
v  0.00253096 0.00533159 -0.000711254
v  0.00236125 0.00533159 -0.00088096
v  8.48531e-05 0.00697822 0.00173485
v  -8.48525e-05 0.00697822 0.00156515
v  0.00383096 0.00349311 -0.00201125
v  0.00366125 0.00349311 -0.00218096
v  0.00357096 0.00312541 -0.00175125
v  0.00340125 0.00312541 -0.00192096
v  0.00415096 0.00230517 -0.00233125
v  0.00398125 0.00230517 -0.00250096
v  0.00441096 0.00267286 -0.00259125
v  0.00424125 0.00267286 -0.00276096
v  0.00595096 0.000494975 -0.00413125
v  0.00578125 0.000494975 -0.00430096
v  0.00595096 -0.000494975 -0.00413125
v  0.00578125 -0.000494975 -0.00430096
v  0.00560096 -0.000494975 -0.00378125
v  0.00543125 -0.000494975 -0.00395096
v  0.00560096 -8.19657e-17 -0.00378125
v  0.00543125 -8.19657e-17 -0.00395096
v  0.00412096 -8.45678e-17 -0.00230125
v  0.00395125 -8.45678e-17 -0.00247096
v  0.00035 -0.00036 -0.00085
v  0.00035 -0.00036 -0.00235
v  0.00035 -0.00012 -0.00085
v  0.00035 -0.00012 -0.00235
v  -0.0013 -0.00036 -0.00085
v  -0.0013 -0.00012 -0.00085
v  -0.0013 -0.00036 -0.00235
v  -0.0013 -0.00012 -0.00235
v  -0.0002 -0.00036 -0.00235
v  -0.0002 -0.00012 -0.00235
v  -0.0002 -0.00036 -0.00135
v  -0.0002 -0.00012 -0.00135
v  8.0093e-12 -0.00036 -0.00135
v  8.0093e-12 -0.00012 -0.00135
v  8.0093e-12 -0.00036 -0.00235
v  8.0093e-12 -0.00012 -0.00235
v  4.15611e-19 0.00012 -0.00085
v  4.15611e-19 -0.00012 -0.00085
v  0.00515 0.00012 -0.00085
v  0.00515 -0.00012 -0.00085
v  -2.07083e-18 0.00012 0.00075
v  -2.07083e-18 -0.00012 0.00075
v  -0.0005 0.00012 0.00075
v  -0.0005 -0.00012 0.00075
v  -3.93674e-17 0.00012 0.00075
v  -3.93674e-17 -0.00012 0.00075
v  -0.0013 0.00012 -0.00025
v  -0.0013 -0.00012 -0.00025
v  -0.0013 0.00012 -0.00235
v  -0.0013 -0.00012 -0.00235
v  -0.0002 0.00012 -0.00235
v  -0.0002 -0.00012 -0.00235
v  -0.0002 0.00012 -0.00185
v  -0.0002 -0.00012 -0.00185
v  -7.21898e-17 0.00012 -0.00185
v  -7.21898e-17 -0.00012 -0.00185
v  -7.14128e-17 0.00012 -0.00235
v  -7.14128e-17 -0.00012 -0.00235
v  0.0025 0.00012 -0.00235
v  0.0025 -0.00012 -0.00235
v  0.0025 0.00012 -0.002125
v  0.0025 -0.00012 -0.002125
v  0.003 0.00012 -0.002125
v  0.003 -0.00012 -0.002125
v  0.003 0.00012 -0.00235
v  0.003 -0.00012 -0.00235
v  0.004 0.00012 -0.00235
v  0.004 -0.00012 -0.00235
v  0.00515 0.00012 -0.0035
v  0.00515 -0.00012 -0.0035

# 0 UV coordinates

# 44 vertex normals
vn 0.707107 0 0.707106
vn 0.707107 1.3219e-16 0.707106
vn 0.707107 0 -0.707107
vn 0.707107 0 0.707107
vn 1 0 0
vn 0 0 1
vn -1 0 0
vn 0 0 -1
vn 0.707106 0 0.707107
vn -0.707107 0 0.707107
vn 0 -1 0
vn 0 1 0
vn -0.5 0.707107 0.5
vn -0.5 -0.707107 0.5
vn 0.5 -0.707107 -0.5
vn -0.581001 -0.56998 0.581001
vn -0.304991 -0.902198 0.304991
vn 0.30391 0.902927 -0.30391
vn 0.5 0.707107 -0.5
vn 0.5 -0.707107 -0.5
vn 0.5 0.707107 -0.5
vn 0.5 0.707107 -0.5
vn -4.98922e-07 -1 4.98923e-07
vn -4.98922e-07 -1 4.98922e-07
vn -0.707106 0 0.707107
vn 8.79083e-16 -1 -8.79083e-16
vn 8.79082e-16 -1 -8.79083e-16
vn -0.578741 -0.57456 0.578741
vn -0.707107 1.21934e-07 -0.707107
vn -0.707107 0 -0.707107
vn -0.707107 9.28846e-08 -0.707107
vn -0.707107 -4.19059e-08 -0.707107
vn -0.707107 -3.96939e-08 -0.707107
vn -0.707107 -4.47751e-08 -0.707107
vn 0.707107 0 0.707107
vn 0.707107 0 0.707107
vn 0.707107 -7.14204e-08 0.707107
vn 0.707107 -9.28846e-08 0.707107
vn 0.707107 -1.4925e-07 0.707107
vn -0.707107 8.25306e-08 0.707107
vn -1 0 -8.67362e-16
vn 1 0 1.55402e-15
vn -0.780869 0 0.624695
vn -1 -0 -1.55401e-15

# Mesh '<STL_BINARY>' with 188 faces
g <STL_BINARY>
usemtl DefaultMaterial
f  1//1 2//1 3//1
f  3//1 2//1 4//2
f  5//3 1//3 6//3
f  6//3 1//3 3//3
f  7//4 5//4 8//4
f  8//4 5//4 6//4
f  9//5 7//5 10//5
f  10//5 7//5 8//5
f  11//6 9//6 12//6
f  12//6 9//6 10//6
f  13//7 11//7 14//7
f  14//7 11//7 12//7
f  15//8 13//8 16//8
f  16//8 13//8 14//8
f  17//3 15//3 18//3
f  18//3 15//3 16//3
f  19//9 17//9 20//9
f  20//9 17//9 18//9
f  2//10 19//10 4//10
f  4//10 19//10 20//10
f  17//11 19//11 15//11
f  15//11 19//11 2//11
f  15//11 2//11 13//11
f  1//11 13//11 2//11
f  7//11 11//11 13//11
f  7//11 13//11 1//11
f  1//11 5//11 7//11
f  9//11 11//11 7//11
f  4//12 20//12 18//12
f  18//12 16//12 4//12
f  4//12 16//12 14//12
f  4//12 14//12 3//12
f  12//12 10//12 14//12
f  14//12 10//12 8//12
f  3//12 14//12 8//12
f  3//12 8//12 6//12
f  21//13 22//13 23//13
f  23//13 22//13 24//13
f  25//14 26//14 21//14
f  21//14 26//14 22//14
f  27//15 28//15 25//15
f  25//15 28//15 26//15
f  29//16 30//16 27//16
f  27//16 30//16 28//16
f  30//17 29//17 31//17
f  31//17 29//17 32//17
f  33//18 34//18 35//18
f  35//18 34//18 36//18
f  37//19 38//19 33//19
f  33//19 38//19 34//19
f  39//20 40//20 37//20
f  37//20 40//20 38//20
f  41//21 42//21 39//21
f  39//21 42//21 40//21
f  43//13 44//13 41//13
f  41//13 44//13 42//13
f  45//22 46//22 43//22
f  43//22 46//22 44//22
f  47//3 48//3 45//3
f  45//3 48//3 46//3
f  49//23 50//23 47//23
f  47//23 50//23 48//24
f  51//25 52//25 49//25
f  49//25 52//25 50//25
f  53//26 54//26 51//26
f  51//26 54//26 52//27
f  24//28 54//28 23//28
f  23//28 54//28 53//28
f  52//29 54//29 24//29
f  46//30 50//30 52//29
f  46//30 52//29 22//30
f  22//30 52//29 24//29
f  48//30 50//30 46//30
f  22//30 42//30 46//30
f  46//30 42//30 44//30
f  26//31 40//32 22//30
f  22//30 40//32 42//30
f  28//31 30//30 26//31
f  26//31 30//30 40//32
f  30//30 34//33 40//32
f  40//32 34//33 38//34
f  31//30 36//30 30//30
f  30//30 36//30 34//33
f  51//35 49//35 47//35
f  47//35 45//36 51//35
f  51//35 45//36 41//36
f  51//35 41//36 53//37
f  45//36 43//36 41//36
f  41//36 21//36 23//36
f  21//36 41//36 25//38
f  25//38 41//36 39//39
f  53//37 41//36 23//36
f  29//38 27//38 25//38
f  25//38 39//39 29//38
f  29//38 39//39 37//36
f  33//36 32//36 29//38
f  29//38 37//36 33//36
f  35//36 32//36 33//36
f  36//40 31//40 35//40
f  35//40 31//40 32//40
f  55//5 56//5 57//5
f  57//5 56//5 58//5
f  59//6 55//6 60//6
f  60//6 55//6 57//6
f  61//7 59//7 62//7
f  62//7 59//7 60//7
f  63//8 61//8 64//8
f  64//8 61//8 62//8
f  65//5 63//5 66//5
f  66//5 63//5 64//5
f  67//8 65//8 68//8
f  68//8 65//8 66//8
f  69//41 67//41 70//41
f  70//41 67//41 68//41
f  56//8 69//8 58//8
f  58//8 69//8 70//8
f  69//11 56//11 67//11
f  67//11 56//11 55//11
f  67//11 55//11 65//11
f  65//11 55//11 59//11
f  65//11 59//11 63//11
f  63//11 59//11 61//11
f  64//12 62//12 66//12
f  66//12 62//12 60//12
f  66//12 60//12 68//12
f  68//12 60//12 57//12
f  68//12 57//12 70//12
f  70//12 57//12 58//12
f  71//6 72//6 73//6
f  73//6 72//6 74//6
f  75//42 76//42 71//42
f  71//42 76//42 72//42
f  77//6 78//6 79//6
f  79//6 78//6 80//6
f  81//43 82//43 77//43
f  77//43 82//43 78//43
f  83//7 84//7 81//7
f  81//7 84//7 82//7
f  85//8 86//8 83//8
f  83//8 86//8 84//8
f  87//5 88//5 85//5
f  85//5 88//5 86//5
f  89//8 90//8 87//8
f  87//8 90//8 88//8
f  91//44 92//44 89//44
f  89//44 92//44 90//44
f  93//8 94//8 91//8
f  91//8 94//8 92//8
f  95//5 96//5 93//5
f  93//5 96//5 94//5
f  97//8 98//8 95//8
f  95//8 98//8 96//8
f  99//7 100//7 97//7
f  97//7 100//7 98//7
f  101//8 102//8 99//8
f  99//8 102//8 100//8
f  103//30 104//30 101//30
f  101//30 104//30 102//30
f  74//5 104//5 73//5
f  73//5 104//5 103//5
f  92//11 94//11 90//11
f  90//11 94//11 96//11
f  72//11 88//11 90//11
f  72//11 90//11 74//11
f  74//11 90//11 96//11
f  74//11 96//11 98//11
f  98//11 100//11 74//11
f  74//11 100//11 102//11
f  74//11 102//11 104//11
f  80//11 78//11 72//11
f  72//11 78//11 82//11
f  82//11 88//11 72//11
f  82//11 86//11 88//11
f  84//11 86//11 82//11
f  95//12 93//12 91//12
f  91//12 89//12 95//12
f  95//12 89//12 73//12
f  95//12 73//12 97//12
f  71//12 73//12 89//12
f  87//12 71//12 89//12
f  73//12 103//12 101//12
f  97//12 73//12 101//12
f  97//12 101//12 99//12
f  81//12 79//12 71//12
f  81//12 71//12 87//12
f  85//12 83//12 87//12
f  87//12 83//12 81//12
f  77//12 79//12 81//12

