# File produced by Open Asset Import Library (http://www.assimp.sf.net)
# (assimp v3.1.187496374)

mtllib RRS4.obj.mtl

# 58 vertex positions
v  -0.00025 0.00012 -0.000937635
v  -0.00025 -0.00012 -0.000937635
v  -0.00235 0.00012 -0.000937635
v  -0.00235 -0.00012 -0.000937635
v  0.00075 0.00012 -0.000187635
v  0.00075 -0.00012 -0.000187635
v  0.00075 0.00012 -8.13152e-20
v  0.00075 -0.00012 -8.13152e-20
v  -0.00085 0.00012 -8.13152e-20
v  -0.00085 -0.00012 -8.13152e-20
v  -0.00085 0.00012 0.00549236
v  -0.00085 -0.00012 0.00549236
v  -0.00085 0.00012 0
v  -0.00085 -0.00012 0
v  -0.00347 0.00012 0.00549236
v  -0.00347 -0.00012 0.00549236
v  -0.00235 0.00012 0.00437236
v  -0.00235 -0.00012 0.00437236
v  -0.00247611 -1.61528e-10 0.00435877
v  -0.00230641 -1.61528e-10 0.00452848
v  -0.000151115 -0.00379716 0.00203377
v  1.8591e-05 -0.00379716 0.00220348
v  -0.00394611 -1.61528e-10 0.00582877
v  -0.00377641 -1.61528e-10 0.00599848
v  -0.00394611 0.000494975 0.00582877
v  -0.00377641 0.000494975 0.00599848
v  -0.00429375 0.000494975 0.00617641
v  -0.00412404 0.000494975 0.00634611
v  -0.00429375 -0.000494975 0.00617641
v  -0.00412404 -0.000494975 0.00634611
v  -0.00151375 -0.0047659 0.00339641
v  -0.00134404 -0.0047659 0.00356611
v  0.00184125 -0.00699329 4.1409e-05
v  0.00201096 -0.00699329 0.000211115
v  0.00196751 -0.00504775 -8.48528e-05
v  0.00213722 -0.00504775 8.48528e-05
v  0.00196751 -0.00699329 -8.48527e-05
v  0.00213722 -0.00699329 8.48529e-05
v  -0.00290764 0.00036 0.00549236
v  -0.00359508 0.00036 0.0061798
v  -0.00290764 0.00012 0.00549236
v  -0.00359508 0.00012 0.0061798
v  -0.00394264 0.00036 0.00583225
v  -0.00394264 0.00012 0.00583225
v  -0.0042902 0.00036 0.0061798
v  -0.0042902 0.00012 0.0061798
v  -0.00394264 0.00036 0.00652736
v  -0.00394264 0.00012 0.00652736
v  -0.0042902 0.00036 0.00687492
v  -0.0042902 0.00012 0.00687492
v  -0.00456647 0.00036 0.00659865
v  -0.00456647 0.00012 0.00659865
v  -0.00456647 0.00036 0.00469236
v  -0.00456647 0.00012 0.00469236
v  -0.00085 0.00036 0.00469236
v  -0.00085 0.00012 0.00469236
v  -0.00085 0.00036 0.00549236
v  -0.00085 0.00012 0.00549236

# 0 UV coordinates

# 36 vertex normals
vn -0 -0 -1
vn 0.6 0 -0.8
vn 1 0 0
vn 0 0 1
vn -0.707107 -0 -0.707107
vn -1 -0 -0
vn 0 1 0
vn 0 -1 0
vn 0.53455 0.654609 -0.53455
vn 0.53455 0.654609 -0.53455
vn -4.72033e-15 1 4.72034e-15
vn -4.72034e-15 1 4.72034e-15
vn 0.707107 -1.33046e-06 -0.707107
vn 0.707106 -9.97846e-07 -0.707107
vn -0.707107 6.6523e-07 0.707107
vn -0.520244 -0.677268 0.520244
vn -0.300487 -0.905216 0.300487
vn -0.300487 -0.905216 0.300487
vn 0.272367 0.92284 -0.272367
vn 0.272367 0.92284 -0.272366
vn -0.707107 1.11934e-07 -0.707107
vn -0.707107 0 -0.707107
vn -0.707107 -5.21883e-08 -0.707107
vn -0.707106 -4.23112e-08 -0.707107
vn 0.707107 3.32615e-07 0.707107
vn 0.707107 -5.97206e-08 0.707107
vn 0.707107 0 0.707107
vn 0.707107 4.209e-08 0.707107
vn 0.707107 4.23111e-08 0.707107
vn 0.707107 -4.23111e-08 -0.707107
vn -0.707107 0 0.707107
vn -0.707107 -1.26515e-16 0.707107
vn 0.707107 0 0.707106
vn 0.707107 1.26515e-16 0.707106
vn 0.707107 0 -0.707107
vn -0.707107 0 0.707107

# Mesh '<STL_BINARY>' with 100 faces
g <STL_BINARY>
usemtl DefaultMaterial
f  1//1 2//1 3//1
f  3//1 2//1 4//1
f  5//2 6//2 1//2
f  1//2 6//2 2//2
f  7//3 8//3 5//3
f  5//3 8//3 6//3
f  9//4 10//4 7//4
f  7//4 10//4 8//4
f  11//3 12//3 13//3
f  13//3 12//3 14//3
f  15//4 16//4 11//4
f  11//4 16//4 12//4
f  17//5 18//5 15//5
f  15//5 18//5 16//5
f  17//6 3//6 18//6
f  18//6 3//6 4//6
f  13//7 7//7 5//7
f  5//7 1//7 13//7
f  13//7 1//7 3//7
f  13//7 3//7 11//7
f  11//7 3//7 17//7
f  11//7 17//7 15//7
f  6//8 8//8 2//8
f  2//8 8//8 14//8
f  2//8 14//8 4//8
f  4//8 14//8 18//8
f  18//8 14//8 12//8
f  18//8 12//8 16//8
f  19//9 20//9 21//9
f  21//9 20//9 22//10
f  23//11 24//11 19//11
f  19//11 24//11 20//12
f  25//13 26//13 23//13
f  23//13 26//13 24//14
f  27//7 28//7 25//7
f  25//7 28//7 26//7
f  29//15 30//15 27//15
f  27//15 30//15 28//15
f  31//16 32//16 29//16
f  29//16 32//16 30//16
f  33//17 34//17 31//17
f  31//17 34//17 32//18
f  35//19 21//19 36//19
f  36//19 21//19 22//20
f  23//21 19//21 21//21
f  29//22 25//22 23//21
f  29//22 23//21 31//22
f  31//22 23//21 21//21
f  31//22 21//21 33//23
f  33//23 21//21 35//22
f  33//23 35//22 37//24
f  27//22 25//22 29//22
f  24//25 26//25 28//25
f  32//26 20//27 24//25
f  32//26 24//25 30//27
f  30//27 24//25 28//25
f  22//26 32//26 36//26
f  36//26 32//26 34//28
f  22//26 20//27 32//26
f  36//26 34//28 38//29
f  37//30 35//30 38//30
f  38//30 35//30 36//30
f  33//8 37//8 34//8
f  34//8 37//8 38//8
f  39//27 40//27 41//27
f  41//27 40//27 42//27
f  40//31 43//31 42//31
f  42//31 43//31 44//32
f  43//33 45//33 44//33
f  44//33 45//33 46//34
f  45//35 47//35 46//35
f  46//35 47//35 48//35
f  47//27 49//27 48//27
f  48//27 49//27 50//27
f  49//36 51//36 50//36
f  50//36 51//36 52//36
f  51//6 53//6 52//6
f  52//6 53//6 54//6
f  53//1 55//1 54//1
f  54//1 55//1 56//1
f  55//3 57//3 56//3
f  56//3 57//3 58//3
f  57//4 39//4 58//4
f  58//4 39//4 41//4
f  49//7 47//7 51//7
f  51//7 47//7 45//7
f  51//7 45//7 53//7
f  43//7 53//7 45//7
f  39//7 55//7 53//7
f  39//7 53//7 43//7
f  43//7 40//7 39//7
f  57//7 55//7 39//7
f  46//8 48//8 50//8
f  50//8 52//8 46//8
f  46//8 52//8 54//8
f  46//8 54//8 44//8
f  56//8 58//8 54//8
f  54//8 58//8 41//8
f  44//8 54//8 41//8
f  44//8 41//8 42//8

