# File produced by Open Asset Import Library (http://www.assimp.sf.net)
# (assimp v3.1.187496374)

mtllib FLL2.obj.mtl

# 52 vertex positions
v  0.00032 -0.00077 -0.00012
v  0.00032 -0.00077 0.00012
v  0.00032 -7.34627e-11 -0.00012
v  0.00032 -7.34627e-11 0.00012
v  -0.00032 -0.00077 -0.00012
v  -0.00032 -0.00077 0.00012
v  -0.00032 -7.34627e-11 -0.00012
v  -0.00032 -7.34627e-11 0.00012
v  -0.00123 -7.34627e-11 -0.00012
v  -0.00123 -7.34627e-11 0.00012
v  -0.00123 -0.00117 -0.00012
v  -0.00123 -0.00117 0.00012
v  0.00123 -0.00117 -0.00012
v  0.00123 -0.00117 0.00012
v  0.00123 -7.34627e-11 -0.00012
v  0.00123 -7.34627e-11 0.00012
v  -0.00075 0.00024 0.00058
v  -0.00075 2.58684e-10 0.00058
v  0.00075 0.00024 0.00058
v  0.00075 2.58684e-10 0.00058
v  -0.00075 0.00024 0.00012
v  -0.00075 2.58684e-10 0.00012
v  -0.00031 0.00024 0.00012
v  -0.00031 2.58684e-10 0.00012
v  -0.00031 0.00024 -0.00046
v  -0.00031 2.58684e-10 -0.00046
v  0.00031 0.00024 -0.00046
v  0.00031 2.58684e-10 -0.00046
v  0.00031 0.00024 0.00012
v  0.00031 2.58684e-10 0.00012
v  0.00075 0.00024 0.00012
v  0.00075 2.58684e-10 0.00012
v  -0.00175 0.00024 -0.00032
v  -0.00175 0.00048 -0.00032
v  -0.00175 0.00024 -0.00182
v  -0.00175 0.00048 -0.00182
v  -0.00075 0.00024 -0.00032
v  -0.00075 0.00048 -0.00032
v  -0.00075 0.00024 0.00058
v  -0.00075 0.00048 0.00058
v  0.00075 0.00024 0.00058
v  0.00075 0.00048 0.00058
v  0.00075 0.00024 -0.00052
v  0.00075 0.00048 -0.00052
v  0.0018 0.00024 -0.00052
v  0.0018 0.00048 -0.00052
v  0.0018 0.00024 -0.00032
v  0.0018 0.00048 -0.00032
v  0.00225 0.00024 -0.00032
v  0.00225 0.00048 -0.00032
v  0.00225 0.00024 -0.00182
v  0.00225 0.00048 -0.00182

# 0 UV coordinates

# 8 vertex normals
vn -1 0 0
vn 0 1 0
vn 1 0 0
vn 0 1 -2.89121e-14
vn -1.63167e-30 1 -2.89121e-14
vn 0 -1 0
vn 0 0 1
vn 0 0 -1

# Mesh '<STL_BINARY>' with 92 faces
g <STL_BINARY>
usemtl DefaultMaterial
f  1//1 2//1 3//1
f  3//1 2//1 4//1
f  5//2 6//2 1//2
f  1//2 6//2 2//2
f  7//3 8//3 5//3
f  5//3 8//3 6//3
f  9//4 10//4 7//4
f  7//4 10//4 8//5
f  11//1 12//1 9//1
f  9//1 12//1 10//1
f  13//6 14//6 11//6
f  11//6 14//6 12//6
f  15//3 16//3 13//3
f  13//3 16//3 14//3
f  4//2 16//2 3//2
f  3//2 16//2 15//2
f  8//7 10//7 6//7
f  6//7 10//7 12//7
f  6//7 12//7 2//7
f  2//7 12//7 14//7
f  2//7 14//7 4//7
f  4//7 14//7 16//7
f  3//8 15//8 1//8
f  1//8 15//8 13//8
f  1//8 13//8 5//8
f  5//8 13//8 11//8
f  5//8 11//8 7//8
f  7//8 11//8 9//8
f  17//7 18//7 19//7
f  19//7 18//7 20//7
f  21//1 22//1 17//1
f  17//1 22//1 18//1
f  23//8 24//8 21//8
f  21//8 24//8 22//8
f  25//1 26//1 23//1
f  23//1 26//1 24//1
f  27//8 28//8 25//8
f  25//8 28//8 26//8
f  29//3 30//3 27//3
f  27//3 30//3 28//3
f  31//8 32//8 29//8
f  29//8 32//8 30//8
f  20//3 32//3 19//3
f  19//3 32//3 31//3
f  18//6 22//6 20//6
f  20//6 22//6 24//6
f  32//6 20//6 30//6
f  30//6 20//6 24//6
f  30//6 24//6 28//6
f  28//6 24//6 26//6
f  19//2 31//2 17//2
f  17//2 31//2 29//2
f  21//2 17//2 23//2
f  23//2 17//2 29//2
f  23//2 29//2 25//2
f  25//2 29//2 27//2
f  33//1 34//1 35//1
f  35//1 34//1 36//1
f  37//7 38//7 33//7
f  33//7 38//7 34//7
f  39//1 40//1 37//1
f  37//1 40//1 38//1
f  41//7 42//7 39//7
f  39//7 42//7 40//7
f  43//3 44//3 41//3
f  41//3 44//3 42//3
f  45//7 46//7 43//7
f  43//7 46//7 44//7
f  47//1 48//1 45//1
f  45//1 48//1 46//1
f  49//7 50//7 47//7
f  47//7 50//7 48//7
f  51//3 52//3 49//3
f  49//3 52//3 50//3
f  36//8 52//8 35//8
f  35//8 52//8 51//8
f  36//2 34//2 52//2
f  52//2 34//2 38//2
f  46//2 50//2 52//2
f  46//2 52//2 44//2
f  44//2 52//2 38//2
f  44//2 38//2 42//2
f  42//2 38//2 40//2
f  48//2 50//2 46//2
f  37//6 33//6 35//6
f  39//6 37//6 43//6
f  43//6 37//6 35//6
f  43//6 35//6 45//6
f  45//6 35//6 51//6
f  43//6 41//6 39//6
f  45//6 51//6 47//6
f  47//6 51//6 49//6

