# File produced by Open Asset Import Library (http://www.assimp.sf.net)
# (assimp v3.1.187496374)

mtllib FLL3.obj.mtl

# 104 vertex positions
v  1.00002e-13 -0.00012 -0.00085
v  1.00002e-13 0.00012 -0.00085
v  -0.00515 -0.00012 -0.00085
v  -0.00515 0.00012 -0.00085
v  1.00002e-13 -0.00012 0.00075
v  1.00002e-13 0.00012 0.00075
v  0.0005 -0.00012 0.00075
v  0.0005 0.00012 0.00075
v  1.00039e-13 -0.00012 0.00075
v  1.00039e-13 0.00012 0.00075
v  0.0013 -0.00012 -0.00025
v  0.0013 0.00012 -0.00025
v  0.0013 -0.00012 -0.00235
v  0.0013 0.00012 -0.00235
v  0.0002 -0.00012 -0.00235
v  0.0002 0.00012 -0.00235
v  0.0002 -0.00012 -0.00185
v  0.0002 0.00012 -0.00185
v  1.00076e-13 -0.00012 -0.00185
v  1.00076e-13 0.00012 -0.00185
v  1.00076e-13 -0.00012 -0.00235
v  1.00076e-13 0.00012 -0.00235
v  -0.0025 -0.00012 -0.00235
v  -0.0025 0.00012 -0.00235
v  -0.0025 -0.00012 -0.002125
v  -0.0025 0.00012 -0.002125
v  -0.003 -0.00012 -0.002125
v  -0.003 0.00012 -0.002125
v  -0.003 -0.00012 -0.00235
v  -0.003 0.00012 -0.00235
v  -0.004 -0.00012 -0.00235
v  -0.004 0.00012 -0.00235
v  -0.00515 -0.00012 -0.0035
v  -0.00515 0.00012 -0.0035
v  -0.00035 -0.00012 -0.00085
v  -0.00035 -0.00012 -0.00235
v  -0.00035 -0.00036 -0.00085
v  -0.00035 -0.00036 -0.00235
v  0.0013 -0.00012 -0.00085
v  0.0013 -0.00036 -0.00085
v  0.0013 -0.00012 -0.00235
v  0.0013 -0.00036 -0.00235
v  0.0002 -0.00012 -0.00235
v  0.0002 -0.00036 -0.00235
v  0.0002 -0.00012 -0.00135
v  0.0002 -0.00036 -0.00135
v  -7.9093e-12 -0.00012 -0.00135
v  -7.9093e-12 -0.00036 -0.00135
v  -7.9093e-12 -0.00012 -0.00235
v  -7.9093e-12 -0.00036 -0.00235
v  -0.00542336 -0.00012 -0.00392533
v  -0.00579012 -0.00012 -0.00429209
v  -0.00542336 -0.00036 -0.00392533
v  -0.00579012 -0.00036 -0.00429209
v  -0.00577336 -0.00012 -0.00357533
v  -0.00577336 -0.00036 -0.00357533
v  -0.00515 -0.00012 -0.00295197
v  -0.00515 -0.00036 -0.00295197
v  -0.00515 -0.00012 -0.00085
v  -0.00515 -0.00036 -0.00085
v  -0.00436781 -0.00012 -0.00085
v  -0.00436781 -0.00036 -0.00085
v  -0.00436781 -0.00012 -0.00454882
v  -0.00436781 -0.00036 -0.00454882
v  -0.00610102 -0.00012 -0.00454882
v  -0.00610102 -0.00036 -0.00454882
v  -0.00642393 -0.00012 -0.00422591
v  -0.00642393 -0.00036 -0.00422591
v  -0.00614012 -0.00012 -0.00394209
v  -0.00614012 -0.00036 -0.00394209
v  -0.0029063 0.0027223 -0.001426
v  -0.003076 0.0027223 -0.0012563
v  -0.0027263 0.00246774 -0.001246
v  -0.002896 0.00246774 -0.0010763
v  -0.0028263 0.00283544 -0.001346
v  -0.002996 0.00283544 -0.0011763
v  -0.0026613 0.0026021 -0.001181
v  -0.002831 0.0026021 -0.0010113
v  -0.00227629 0.00338698 -0.000796001
v  -0.002446 0.00338698 -0.000626295
v  -8.48526e-05 0.00498337 0.00173485
v  8.4853e-05 0.00498337 0.00156515
v  -0.00236125 0.00533159 -0.00088096
v  -0.00253096 0.00533159 -0.000711255
v  8.48529e-05 0.00697822 0.00156515
v  -8.48527e-05 0.00697822 0.00173485
v  -0.00366125 0.00349311 -0.00218096
v  -0.00383096 0.00349311 -0.00201125
v  -0.00340125 0.00312541 -0.00192096
v  -0.00357096 0.00312541 -0.00175125
v  -0.00398125 0.00230517 -0.00250096
v  -0.00415096 0.00230517 -0.00233125
v  -0.00424125 0.00267286 -0.00276096
v  -0.00441096 0.00267286 -0.00259125
v  -0.00578125 0.000494975 -0.00430096
v  -0.00595096 0.000494975 -0.00413125
v  -0.00578125 -0.000494975 -0.00430096
v  -0.00595096 -0.000494975 -0.00413125
v  -0.00543125 -0.000494975 -0.00395096
v  -0.00560096 -0.000494975 -0.00378125
v  -0.00543125 -8.89046e-17 -0.00395096
v  -0.00560096 -8.89046e-17 -0.00378125
v  -0.00395125 -8.54351e-17 -0.00247096
v  -0.00412096 -8.54351e-17 -0.00230125

# 0 UV coordinates

# 40 vertex normals
vn 0 0 1
vn -1 0 1.01644e-16
vn 0.780869 0 0.624695
vn 1 0 0
vn 0 0 -1
vn -1 0 0
vn 1 2.82344e-17 -9.48677e-17
vn 1 0 -1.0842e-16
vn 0.707107 0 -0.707107
vn 0 1 0
vn 0 -1 0
vn -0.707107 0 0.707106
vn -0.707107 -0 -0.707107
vn -0.707107 0 0.707107
vn -0.707107 2.11323e-16 0.707107
vn -0.707106 0 0.707107
vn -0.707106 -1.08166e-16 0.707107
vn 0.707107 0 0.707107
vn 0.5 0.707107 0.5
vn 0.5 -0.707106 0.5
vn -0.5 -0.707107 -0.5
vn 0.581 -0.56998 0.581
vn 0.304991 -0.902198 0.304991
vn -0.30391 0.902927 -0.30391
vn -0.5 0.707107 -0.5
vn -0.5 -0.707107 -0.5
vn -0.5 0.707107 -0.5
vn 4.98922e-07 -1 4.98922e-07
vn 1.17211e-15 -1 1.17211e-15
vn 0.578741 -0.57456 0.578741
vn -0.707107 0 0.707107
vn -0.707107 -6.36835e-08 0.707107
vn -0.707107 3.09615e-08 0.707107
vn -0.707107 -4.19059e-08 0.707107
vn -0.707107 -4.25504e-08 0.707107
vn -0.707107 8.95502e-08 0.707107
vn 0.707107 4.24899e-08 -0.707107
vn 0.707107 -3.09615e-08 -0.707107
vn 0.707107 7.39766e-08 -0.707107
vn 0.707107 8.25306e-08 0.707107

# Mesh '<STL_BINARY>' with 188 faces
g <STL_BINARY>
usemtl DefaultMaterial
f  1//1 2//1 3//1
f  3//1 2//1 4//1
f  5//2 6//2 1//2
f  1//2 6//2 2//2
f  7//1 8//1 9//1
f  9//1 8//1 10//1
f  11//3 12//3 7//3
f  7//3 12//3 8//3
f  13//4 14//4 11//4
f  11//4 14//4 12//4
f  15//5 16//5 13//5
f  13//5 16//5 14//5
f  17//6 18//6 15//6
f  15//6 18//6 16//6
f  19//5 20//5 17//5
f  17//5 20//5 18//5
f  21//7 22//7 19//7
f  19//7 22//7 20//8
f  23//5 24//5 21//5
f  21//5 24//5 22//5
f  25//6 26//6 23//6
f  23//6 26//6 24//6
f  27//5 28//5 25//5
f  25//5 28//5 26//5
f  29//4 30//4 27//4
f  27//4 30//4 28//4
f  31//5 32//5 29//5
f  29//5 32//5 30//5
f  33//9 34//9 31//9
f  31//9 34//9 32//9
f  4//6 34//6 3//6
f  3//6 34//6 33//6
f  22//10 24//10 20//10
f  20//10 24//10 26//10
f  2//10 18//10 20//10
f  2//10 20//10 4//10
f  4//10 20//10 26//10
f  4//10 26//10 28//10
f  28//10 30//10 4//10
f  4//10 30//10 32//10
f  4//10 32//10 34//10
f  10//10 8//10 2//10
f  2//10 8//10 12//10
f  12//10 18//10 2//10
f  12//10 16//10 18//10
f  14//10 16//10 12//10
f  25//11 23//11 21//11
f  21//11 19//11 25//11
f  25//11 19//11 3//11
f  25//11 3//11 27//11
f  1//11 3//11 19//11
f  17//11 1//11 19//11
f  3//11 33//11 31//11
f  27//11 3//11 31//11
f  27//11 31//11 29//11
f  11//11 9//11 1//11
f  11//11 1//11 17//11
f  15//11 13//11 17//11
f  17//11 13//11 11//11
f  7//11 9//11 11//11
f  35//6 36//6 37//6
f  37//6 36//6 38//6
f  39//1 35//1 40//1
f  40//1 35//1 37//1
f  41//4 39//4 42//4
f  42//4 39//4 40//4
f  43//5 41//5 44//5
f  44//5 41//5 42//5
f  45//6 43//6 46//6
f  46//6 43//6 44//6
f  47//5 45//5 48//5
f  48//5 45//5 46//5
f  49//4 47//4 50//4
f  50//4 47//4 48//4
f  36//5 49//5 38//5
f  38//5 49//5 50//5
f  49//10 36//10 47//10
f  47//10 36//10 35//10
f  47//10 35//10 45//10
f  45//10 35//10 39//10
f  45//10 39//10 43//10
f  43//10 39//10 41//10
f  44//11 42//11 46//11
f  46//11 42//11 40//11
f  46//11 40//11 48//11
f  48//11 40//11 37//11
f  48//11 37//11 50//11
f  50//11 37//11 38//11
f  51//12 52//12 53//12
f  53//12 52//12 54//12
f  55//13 51//13 56//13
f  56//13 51//13 53//13
f  57//14 55//14 58//14
f  58//14 55//14 56//15
f  59//6 57//6 60//6
f  60//6 57//6 58//6
f  61//1 59//1 62//1
f  62//1 59//1 60//1
f  63//4 61//4 64//4
f  64//4 61//4 62//4
f  65//5 63//5 66//5
f  66//5 63//5 64//5
f  67//13 65//13 68//13
f  68//13 65//13 66//13
f  69//16 67//16 70//16
f  70//16 67//16 68//17
f  52//18 69//18 54//18
f  54//18 69//18 70//18
f  67//10 69//10 65//10
f  65//10 69//10 52//10
f  65//10 52//10 63//10
f  51//10 63//10 52//10
f  57//10 61//10 63//10
f  57//10 63//10 51//10
f  51//10 55//10 57//10
f  59//10 61//10 57//10
f  54//11 70//11 68//11
f  68//11 66//11 54//11
f  54//11 66//11 64//11
f  54//11 64//11 53//11
f  62//11 60//11 64//11
f  64//11 60//11 58//11
f  53//11 64//11 58//11
f  53//11 58//11 56//11
f  71//19 72//19 73//19
f  73//19 72//19 74//19
f  75//20 76//20 71//20
f  71//20 76//20 72//20
f  77//21 78//21 75//21
f  75//21 78//21 76//21
f  79//22 80//22 77//22
f  77//22 80//22 78//22
f  80//23 79//23 81//23
f  81//23 79//23 82//23
f  83//24 84//24 85//24
f  85//24 84//24 86//24
f  87//25 88//25 83//25
f  83//25 88//25 84//25
f  89//26 90//26 87//26
f  87//26 90//26 88//26
f  91//25 92//25 89//25
f  89//25 92//25 90//25
f  93//19 94//19 91//19
f  91//19 94//19 92//19
f  95//27 96//27 93//27
f  93//27 96//27 94//27
f  97//13 98//13 95//13
f  95//13 98//13 96//13
f  99//28 100//28 97//28
f  97//28 100//28 98//28
f  101//18 102//18 99//18
f  99//18 102//18 100//18
f  103//29 104//29 101//29
f  101//29 104//29 102//29
f  74//30 104//30 73//30
f  73//30 104//30 103//30
f  102//31 104//31 74//31
f  96//31 100//31 102//31
f  96//31 102//31 72//31
f  72//31 102//31 74//31
f  98//31 100//31 96//31
f  72//31 92//32 96//31
f  96//31 92//32 94//31
f  76//33 90//34 72//31
f  72//31 90//34 92//32
f  78//33 80//31 76//33
f  76//33 80//31 90//34
f  80//31 84//35 90//34
f  90//34 84//35 88//36
f  81//31 86//31 80//31
f  80//31 86//31 84//35
f  101//9 99//9 97//9
f  97//9 95//9 101//9
f  101//9 95//9 91//37
f  101//9 91//37 103//9
f  95//9 93//9 91//37
f  91//37 71//37 73//37
f  71//37 91//37 75//38
f  75//38 91//37 89//39
f  103//9 91//37 73//37
f  79//38 77//38 75//38
f  75//38 89//39 79//38
f  79//38 89//39 87//9
f  83//9 82//9 79//38
f  79//38 87//9 83//9
f  85//9 82//9 83//9
f  86//40 81//40 85//40
f  85//40 81//40 82//40

