# File produced by Open Asset Import Library (http://www.assimp.sf.net)
# (assimp v3.1.187496374)

mtllib FLS1.obj.mtl

# 52 vertex positions
v  -0.00012 6.1169e-05 0.00082825
v  0.00012 6.1169e-05 0.00082825
v  -0.00012 0.000461168 0.00082825
v  0.00012 0.000461168 0.00082825
v  -0.00012 6.1169e-05 0.00030325
v  0.00012 6.1169e-05 0.00030325
v  -0.00012 -0.000438831 0.00030325
v  0.00012 -0.000438831 0.00030325
v  -0.00012 -0.000438831 0.00082825
v  0.00012 -0.000438831 0.00082825
v  -0.00012 -0.000838831 0.00082825
v  0.00012 -0.000838831 0.00082825
v  -0.00012 -0.000838831 -0.00082175
v  0.00012 -0.000838831 -0.00082175
v  -0.00012 -0.000438831 -0.00082175
v  0.00012 -0.000438831 -0.00082175
v  -0.00012 -0.000438831 -0.00049675
v  0.00012 -0.000438831 -0.00049675
v  -0.00012 6.1169e-05 -0.00049675
v  0.00012 6.1169e-05 -0.00049675
v  -0.00012 6.1169e-05 -0.00082175
v  0.00012 6.1169e-05 -0.00082175
v  -0.00012 0.000461168 -0.00082175
v  0.00012 0.000461168 -0.00082175
v  -0.00012 0.000771168 -0.000744982
v  0.00012 0.000771168 -0.000744982
v  -0.00012 0.00575117 0.00048825
v  0.00012 0.00575117 0.00048825
v  -0.00012 0.000771168 0.000997946
v  0.00012 0.000771168 0.000997946
v  -0.00012 0.00605117 0.00388825
v  0.00012 0.00605117 0.00388825
v  0.00012 0.00684332 0.00349825
v  0.00012 0.00877117 0.00388825
v  0.00012 0.00877117 0.00048825
v  0.00012 0.00821332 0.00087825
v  0.00012 0.00684332 0.00087825
v  0.00012 0.00821332 0.00349825
v  0.00012 0.00877117 0.00298825
v  0.00012 0.00821332 0.00298825
v  0.00012 0.00821332 0.00138825
v  0.00012 0.00877117 0.00138825
v  -0.00012 0.00684332 0.00087825
v  -0.00012 0.00877117 0.00048825
v  -0.00012 0.00684332 0.00349825
v  -0.00012 0.00821332 0.00087825
v  -0.00012 0.00877117 0.00138825
v  -0.00012 0.00821332 0.00138825
v  -0.00012 0.00821332 0.00349825
v  -0.00012 0.00877117 0.00388825
v  -0.00012 0.00821332 0.00298825
v  -0.00012 0.00877117 0.00298825

# 0 UV coordinates

# 10 vertex normals
vn 0 0 1
vn 0 -1 0
vn 0 1 0
vn 0 0 -1
vn 0 0.240376 -0.97068
vn 0 0.240376 -0.97068
vn 0 -0.480171 0.877175
vn 0 -0.480171 0.877175
vn 1 0 0
vn -1 0 0

# Mesh '<STL_BINARY>' with 104 faces
g <STL_BINARY>
usemtl DefaultMaterial
f  1//1 2//1 3//1
f  3//1 2//1 4//1
f  5//2 6//2 1//2
f  1//2 6//2 2//2
f  7//1 8//1 5//1
f  5//1 8//1 6//1
f  9//3 10//3 7//3
f  7//3 10//3 8//3
f  11//1 12//1 9//1
f  9//1 12//1 10//1
f  13//2 14//2 11//2
f  11//2 14//2 12//2
f  15//4 16//4 13//4
f  13//4 16//4 14//4
f  17//3 18//3 15//3
f  15//3 18//3 16//3
f  19//4 20//4 17//4
f  17//4 20//4 18//4
f  21//2 22//2 19//2
f  19//2 22//2 20//2
f  23//4 24//4 21//4
f  21//4 24//4 22//4
f  25//5 26//5 23//5
f  27//6 28//6 25//5
f  25//5 28//6 26//5
f  23//5 26//5 24//5
f  29//3 30//3 25//3
f  25//3 30//3 26//3
f  4//7 30//7 3//7
f  3//7 30//7 29//7
f  29//7 30//7 31//8
f  31//8 30//7 32//8
f  8//9 10//9 12//9
f  18//9 6//9 8//9
f  18//9 8//9 14//9
f  14//9 8//9 12//9
f  14//9 16//9 18//9
f  20//9 6//9 18//9
f  4//9 2//9 6//9
f  20//9 4//9 6//9
f  20//9 22//9 30//9
f  30//9 4//9 20//9
f  30//9 22//9 24//9
f  30//9 24//9 26//9
f  32//9 30//9 26//9
f  28//9 32//9 26//9
f  33//9 34//9 32//9
f  33//9 32//9 28//9
f  35//9 36//9 28//9
f  28//9 36//9 37//9
f  28//9 37//9 33//9
f  38//9 34//9 33//9
f  38//9 39//9 34//9
f  40//9 39//9 38//9
f  35//9 41//9 36//9
f  42//9 41//9 35//9
f  3//10 29//10 19//10
f  1//10 3//10 5//10
f  5//10 3//10 19//10
f  23//10 19//10 29//10
f  23//10 29//10 25//10
f  27//10 25//10 29//10
f  31//10 27//10 29//10
f  21//10 19//10 23//10
f  5//10 19//10 7//10
f  7//10 19//10 17//10
f  13//10 9//10 7//10
f  7//10 17//10 13//10
f  13//10 17//10 15//10
f  11//10 9//10 13//10
f  43//10 44//10 27//10
f  43//10 27//10 31//10
f  31//10 45//10 43//10
f  46//10 44//10 43//10
f  46//10 47//10 44//10
f  48//10 47//10 46//10
f  31//10 49//10 45//10
f  50//10 49//10 31//10
f  50//10 51//10 49//10
f  52//10 51//10 50//10
f  43//1 37//1 46//1
f  46//1 37//1 36//1
f  45//3 33//3 43//3
f  43//3 33//3 37//3
f  49//4 38//4 45//4
f  45//4 38//4 33//4
f  51//2 40//2 49//2
f  49//2 40//2 38//2
f  52//4 39//4 51//4
f  51//4 39//4 40//4
f  50//3 34//3 52//3
f  52//3 34//3 39//3
f  31//1 32//1 50//1
f  50//1 32//1 34//1
f  25//2 26//2 29//2
f  29//2 26//2 30//2
f  44//4 35//4 27//4
f  27//4 35//4 28//4
f  47//3 42//3 44//3
f  44//3 42//3 35//3
f  48//1 41//1 47//1
f  47//1 41//1 42//1
f  36//2 41//2 46//2
f  46//2 41//2 48//2

