# File produced by Open Asset Import Library (http://www.assimp.sf.net)
# (assimp v3.1.187496374)

mtllib FLS3.obj.mtl

# 58 vertex positions
v  0.00025 -0.00012 -0.000937635
v  0.00025 0.00012 -0.000937635
v  0.00235 -0.00012 -0.000937635
v  0.00235 0.00012 -0.000937635
v  -0.00075 -0.00012 -0.000187635
v  -0.00075 0.00012 -0.000187635
v  -0.00075 -0.00012 -2.25771e-18
v  -0.00075 0.00012 -2.28436e-18
v  0.00085 -0.00012 -2.50196e-18
v  0.00085 0.00012 -2.52861e-18
v  0.00085 -0.00012 0.00549236
v  0.00085 0.00012 0.00549236
v  0.00085 -0.00012 -2.42065e-18
v  0.00085 0.00012 -2.44729e-18
v  0.00347 -0.00012 0.00549236
v  0.00347 0.00012 0.00549236
v  0.00235 -0.00012 0.00437236
v  0.00235 0.00012 0.00437236
v  0.00247612 1.61528e-10 0.00435877
v  0.00230641 1.61528e-10 0.00452848
v  0.000151115 0.00379716 0.00203377
v  -1.85907e-05 0.00379716 0.00220348
v  0.00394611 1.61528e-10 0.00582877
v  0.00377641 1.61528e-10 0.00599848
v  0.00394611 -0.000494975 0.00582877
v  0.00377641 -0.000494975 0.00599848
v  0.00429375 -0.000494975 0.00617641
v  0.00412404 -0.000494975 0.00634611
v  0.00429375 0.000494975 0.00617641
v  0.00412404 0.000494975 0.00634611
v  0.00151375 0.0047659 0.00339641
v  0.00134404 0.0047659 0.00356611
v  -0.00184125 0.00699329 4.14087e-05
v  -0.00201096 0.00699329 0.000211114
v  -0.00213722 0.00504775 8.48525e-05
v  -0.00196751 0.00504775 -8.48531e-05
v  -0.00213722 0.00699329 8.48526e-05
v  -0.00196751 0.00699329 -8.4853e-05
v  0.00359508 -0.00012 0.0061798
v  0.00290764 -0.00012 0.00549236
v  0.00359508 -0.00036 0.0061798
v  0.00290764 -0.00036 0.00549236
v  0.00394264 -0.00012 0.00583225
v  0.00394264 -0.00036 0.00583225
v  0.0042902 -0.00012 0.0061798
v  0.0042902 -0.00036 0.0061798
v  0.00394264 -0.00012 0.00652736
v  0.00394264 -0.00036 0.00652736
v  0.0042902 -0.00012 0.00687492
v  0.0042902 -0.00036 0.00687492
v  0.00456647 -0.00012 0.00659865
v  0.00456647 -0.00036 0.00659865
v  0.00456647 -0.00012 0.00469236
v  0.00456647 -0.00036 0.00469236
v  0.00085 -0.00012 0.00469236
v  0.00085 -0.00036 0.00469236
v  0.00085 -0.00012 0.00549236
v  0.00085 -0.00036 0.00549236

# 0 UV coordinates

# 34 vertex normals
vn 0 0 -1
vn -0.6 0 -0.8
vn -1 0 0
vn 1.52656e-16 1.11022e-16 1
vn 0 0 1
vn 0.707107 0 -0.707107
vn 1 0 0
vn 0 1 0
vn 0 -1 0
vn -0.53455 -0.654609 -0.53455
vn 4.72034e-15 -1 4.72033e-15
vn 4.72034e-15 -1 4.72034e-15
vn -0.707107 0 -0.707107
vn -0.707107 3.32615e-07 -0.707106
vn 0.707107 0 0.707107
vn 0.520244 0.677268 0.520244
vn 0.300487 0.905216 0.300487
vn -0.272367 -0.92284 -0.272367
vn -0.272366 -0.92284 -0.272367
vn -0.707107 3.32615e-07 0.707107
vn -0.707107 -5.97206e-08 0.707107
vn -0.707107 0 0.707107
vn -0.707107 -1.39982e-07 0.707107
vn -0.707107 3.90369e-08 0.707107
vn -0.707107 4.23111e-08 0.707107
vn 0.707107 6.85759e-08 -0.707107
vn 0.707107 0 -0.707107
vn 0.707107 -2.00064e-08 -0.707107
vn 0.707107 -3.83215e-08 -0.707107
vn 0.707107 -4.23111e-08 -0.707107
vn -0.707107 1.26933e-07 -0.707107
vn 0.707107 0 0.707107
vn 0.707107 2.53031e-16 0.707107
vn -0.707107 0 0.707106

# Mesh '<STL_BINARY>' with 100 faces
g <STL_BINARY>
usemtl DefaultMaterial
f  1//1 2//1 3//1
f  3//1 2//1 4//1
f  5//2 6//2 1//2
f  1//2 6//2 2//2
f  7//3 8//3 5//3
f  5//3 8//3 6//3
f  9//4 10//4 7//4
f  7//4 10//4 8//4
f  11//3 12//3 13//3
f  13//3 12//3 14//3
f  15//5 16//5 11//5
f  11//5 16//5 12//5
f  17//6 18//6 15//6
f  15//6 18//6 16//6
f  4//7 18//7 3//7
f  3//7 18//7 17//7
f  6//8 8//8 2//8
f  2//8 8//8 14//8
f  2//8 14//8 4//8
f  4//8 14//8 18//8
f  18//8 14//8 12//8
f  18//8 12//8 16//8
f  13//9 7//9 5//9
f  5//9 1//9 13//9
f  13//9 1//9 3//9
f  13//9 3//9 11//9
f  11//9 3//9 17//9
f  11//9 17//9 15//9
f  19//10 20//10 21//10
f  21//10 20//10 22//10
f  23//11 24//11 19//11
f  19//11 24//11 20//12
f  25//13 26//13 23//13
f  23//13 26//13 24//14
f  27//9 28//9 25//9
f  25//9 28//9 26//9
f  29//15 30//15 27//15
f  27//15 30//15 28//15
f  31//16 32//16 29//16
f  29//16 32//16 30//16
f  33//17 34//17 31//17
f  31//17 34//17 32//17
f  22//18 35//18 21//18
f  21//18 35//18 36//19
f  24//20 26//20 28//20
f  32//21 20//22 24//20
f  32//21 24//20 30//23
f  30//23 24//20 28//20
f  22//21 32//21 35//21
f  35//21 32//21 34//24
f  22//21 20//22 32//21
f  35//21 34//24 37//25
f  23//26 19//26 21//26
f  29//27 25//27 23//26
f  29//27 23//26 31//28
f  31//28 23//26 21//26
f  31//28 21//26 33//27
f  33//27 21//26 36//29
f  33//27 36//29 38//30
f  27//27 25//27 29//27
f  35//31 37//31 36//31
f  36//31 37//31 38//31
f  37//8 34//8 38//8
f  38//8 34//8 33//8
f  39//22 40//22 41//22
f  41//22 40//22 42//22
f  43//32 39//32 44//32
f  44//32 39//32 41//33
f  45//34 43//34 46//34
f  46//34 43//34 44//34
f  47//13 45//13 48//13
f  48//13 45//13 46//13
f  49//22 47//22 50//22
f  50//22 47//22 48//22
f  51//15 49//15 52//15
f  52//15 49//15 50//15
f  53//7 51//7 54//7
f  54//7 51//7 52//7
f  55//1 53//1 56//1
f  56//1 53//1 54//1
f  57//3 55//3 58//3
f  58//3 55//3 56//3
f  40//5 57//5 42//5
f  42//5 57//5 58//5
f  45//8 47//8 49//8
f  49//8 51//8 45//8
f  45//8 51//8 53//8
f  45//8 53//8 43//8
f  55//8 57//8 53//8
f  53//8 57//8 40//8
f  43//8 53//8 40//8
f  43//8 40//8 39//8
f  50//9 48//9 52//9
f  52//9 48//9 46//9
f  52//9 46//9 54//9
f  44//9 54//9 46//9
f  42//9 56//9 54//9
f  42//9 54//9 44//9
f  44//9 41//9 42//9
f  58//9 56//9 42//9

