# File produced by Open Asset Import Library (http://www.assimp.sf.net)
# (assimp v3.1.187496374)

mtllib FLL1.obj.mtl

# 66 vertex positions
v  0.0013 0.00514822 0.000501689
v  0.0013 0.00514822 0.000261689
v  -0.0013 0.00514822 0.000501689
v  -0.0013 0.00514822 0.000261689
v  0.0013 0.00651822 0.000501689
v  0.0013 0.00651822 0.000261689
v  0.0008735 0.00651822 0.000501689
v  0.0008735 0.00651822 0.000261689
v  0.0008735 0.00697822 0.000501689
v  0.0008735 0.00697822 0.000261689
v  0.00175 0.00697822 0.000501689
v  0.00175 0.00697822 0.000261689
v  0.00175 0.00432322 0.000501689
v  0.00175 0.00432322 0.000261689
v  -9.90073e-19 0.00432322 0.000501689
v  -9.80809e-19 0.00432322 0.000261689
v  8.65263e-19 0.00277322 0.000501689
v  8.74527e-19 0.00277322 0.000261689
v  -0.00175 0.00277322 0.000501689
v  -0.00175 0.00277322 0.000261689
v  1.6867e-18 0.00277322 0.000501689
v  1.69596e-18 0.00277322 0.000261689
v  -0.00175 0.00697822 0.000501689
v  -0.00175 0.00697822 0.000261689
v  -0.0008735 0.00697822 0.000501689
v  -0.0008735 0.00697822 0.000261689
v  -0.0008735 0.00651822 0.000501689
v  -0.0008735 0.00651822 0.000261689
v  -0.0013 0.00651822 0.000501689
v  -0.0013 0.00651822 0.000261689
v  0.00012 0.00103822 0.000816689
v  -0.00012 0.00103822 0.000816689
v  0.00012 0.00057822 0.000816689
v  -0.00012 0.00057822 0.000816689
v  0.00012 0.00019822 0.000816689
v  -0.00012 0.00019822 0.000816689
v  0.00012 0.00252322 0.000381689
v  -0.00012 0.00252322 0.000381689
v  0.00012 0.00427322 0.000381689
v  -0.00012 0.00427322 0.000381689
v  0.00012 0.00427322 -0.00136831
v  -0.00012 0.00427322 -0.00136831
v  0.00012 0.00289822 -0.00136831
v  -0.00012 0.00289822 -0.00136831
v  0.00012 0.00103822 -0.000818312
v  -0.00012 0.00103822 -0.000818312
v  0.00012 0.00057822 -0.000818312
v  -0.00012 0.00057822 -0.000818312
v  0.00012 0.00019822 -0.000818312
v  -0.00012 0.00019822 -0.000818312
v  -0.00012 0.00019822 0.000376689
v  -0.00012 0.00019822 -0.000378311
v  -0.00012 -0.00030178 0.000376689
v  -0.00012 -0.00030178 -0.000378311
v  -0.00012 -0.00062178 0.000751689
v  -0.00012 -0.00030178 0.000751689
v  -0.00012 -0.00030178 -0.000748311
v  -0.00012 -0.00062178 -0.000748311
v  0.00012 0.00019822 0.000376689
v  0.00012 0.00019822 -0.000378311
v  0.00012 -0.00030178 -0.000378311
v  0.00012 -0.00030178 0.000376689
v  0.00012 -0.00062178 -0.000748311
v  0.00012 -0.00030178 -0.000748311
v  0.00012 -0.00030178 0.000751689
v  0.00012 -0.00062178 0.000751689

# 0 UV coordinates

# 10 vertex normals
vn 0 1 0
vn -1 -0 -0
vn 0 -1 0
vn 1 0 0
vn 1 1.19699e-15 3.86009e-17
vn 1 1.19699e-15 3.86009e-17
vn 0 0 -1
vn 0 0 1
vn 0 0.281117 0.959674
vn -0 -0.283562 -0.958954

# Mesh '<STL_BINARY>' with 124 faces
g <STL_BINARY>
usemtl DefaultMaterial
f  1//1 2//1 3//1
f  3//1 2//1 4//1
f  5//2 6//2 1//2
f  1//2 6//2 2//2
f  7//3 8//3 5//3
f  5//3 8//3 6//3
f  9//2 10//2 7//2
f  7//2 10//2 8//2
f  11//1 12//1 9//1
f  9//1 12//1 10//1
f  13//4 14//4 11//4
f  11//4 14//4 12//4
f  15//3 16//3 13//3
f  13//3 16//3 14//3
f  17//5 18//5 15//5
f  15//5 18//5 16//6
f  19//3 20//3 21//3
f  21//3 20//3 22//3
f  23//2 24//2 19//2
f  19//2 24//2 20//2
f  25//1 26//1 23//1
f  23//1 26//1 24//1
f  27//4 28//4 25//4
f  25//4 28//4 26//4
f  29//3 30//3 27//3
f  27//3 30//3 28//3
f  4//4 30//4 3//4
f  3//4 30//4 29//4
f  24//7 26//7 28//7
f  28//7 30//7 24//7
f  24//7 30//7 4//7
f  24//7 4//7 20//7
f  2//7 14//7 4//7
f  4//7 14//7 16//7
f  4//7 16//7 20//7
f  20//7 16//7 22//7
f  2//7 12//7 14//7
f  6//7 12//7 2//7
f  6//7 10//7 12//7
f  8//7 10//7 6//7
f  19//8 21//8 15//8
f  23//8 19//8 3//8
f  3//8 19//8 15//8
f  3//8 15//8 1//8
f  1//8 15//8 13//8
f  29//8 23//8 3//8
f  29//8 25//8 23//8
f  27//8 25//8 29//8
f  1//8 13//8 5//8
f  5//8 13//8 11//8
f  5//8 11//8 7//8
f  7//8 11//8 9//8
f  31//8 32//8 33//8
f  33//8 32//8 34//8
f  33//8 34//8 35//8
f  35//8 34//8 36//8
f  37//9 38//9 31//9
f  31//9 38//9 32//9
f  39//8 40//8 37//8
f  37//8 40//8 38//8
f  41//1 42//1 39//1
f  39//1 42//1 40//1
f  43//7 44//7 41//7
f  41//7 44//7 42//7
f  45//10 46//10 43//10
f  43//10 46//10 44//10
f  47//7 48//7 45//7
f  49//7 48//7 47//7
f  45//7 48//7 46//7
f  50//7 48//7 49//7
f  34//3 48//3 33//3
f  33//3 48//3 47//3
f  40//2 42//2 38//2
f  38//2 42//2 44//2
f  38//2 44//2 32//2
f  32//2 44//2 46//2
f  32//2 46//2 34//2
f  34//2 46//2 48//2
f  51//2 36//2 34//2
f  48//2 51//2 34//2
f  48//2 50//2 52//2
f  52//2 51//2 48//2
f  52//2 53//2 51//2
f  54//2 53//2 52//2
f  55//2 56//2 53//2
f  54//2 55//2 53//2
f  54//2 57//2 58//2
f  58//2 55//2 54//2
f  33//4 47//4 31//4
f  47//4 33//4 59//4
f  59//4 33//4 35//4
f  31//4 47//4 45//4
f  49//4 47//4 60//4
f  60//4 47//4 59//4
f  31//4 45//4 37//4
f  37//4 45//4 43//4
f  37//4 43//4 39//4
f  39//4 43//4 41//4
f  60//4 59//4 61//4
f  61//4 59//4 62//4
f  63//4 64//4 61//4
f  61//4 62//4 63//4
f  62//4 65//4 66//4
f  63//4 62//4 66//4
f  60//3 52//3 49//3
f  49//3 52//3 50//3
f  61//7 54//7 60//7
f  60//7 54//7 52//7
f  64//1 57//1 61//1
f  61//1 57//1 54//1
f  63//7 58//7 64//7
f  64//7 58//7 57//7
f  66//3 55//3 63//3
f  63//3 55//3 58//3
f  65//8 56//8 66//8
f  66//8 56//8 55//8
f  62//1 53//1 65//1
f  65//1 53//1 56//1
f  59//8 51//8 62//8
f  62//8 51//8 53//8
f  35//3 36//3 59//3
f  59//3 36//3 51//3
f  47//1 48//1 33//1
f  33//1 48//1 34//1

