# File produced by Open Asset Import Library (http://www.assimp.sf.net)
# (assimp v3.1.187496374)

mtllib FLL2.obj.mtl

# 52 vertex positions
v  0.00032 -0.00077 -0.00012
v  0.00032 -0.00077 0.00012
v  0.00032 -7.34627e-11 -0.00012
v  0.00032 -7.34627e-11 0.00012
v  -0.00032 -0.00077 -0.00012
v  -0.00032 -0.00077 0.00012
v  -0.00032 -7.34627e-11 -0.00012
v  -0.00032 -7.34627e-11 0.00012
v  -0.00123 -7.34627e-11 -0.00012
v  -0.00123 -7.34627e-11 0.00012
v  -0.00123 -0.00117 -0.00012
v  -0.00123 -0.00117 0.00012
v  0.00123 -0.00117 -0.00012
v  0.00123 -0.00117 0.00012
v  0.00123 -7.34627e-11 -0.00012
v  0.00123 -7.34627e-11 0.00012
v  -0.00075 0.00024 0.00058
v  -0.00075 2.58684e-10 0.00058
v  0.00075 0.00024 0.00058
v  0.00075 2.58684e-10 0.00058
v  -0.00075 0.00024 0.00012
v  -0.00075 2.58684e-10 0.00012
v  -0.00031 0.00024 0.00012
v  -0.00031 2.58684e-10 0.00012
v  -0.00031 0.00024 -0.00046
v  -0.00031 2.58684e-10 -0.00046
v  0.00031 0.00024 -0.00046
v  0.00031 2.58684e-10 -0.00046
v  0.00031 0.00024 0.00012
v  0.00031 2.58684e-10 0.00012
v  0.00075 0.00024 0.00012
v  0.00075 2.58684e-10 0.00012
v  -0.00175 0.00024 -0.00032
v  -0.00175 0.00048 -0.00032
v  -0.00175 0.00024 -0.00182
v  -0.00175 0.00048 -0.00182
v  -0.00075 0.00024 -0.00032
v  -0.00075 0.00048 -0.00032
v  -0.00075 0.00024 0.00058
v  -0.00075 0.00048 0.00058
v  0.00075 0.00024 0.00058
v  0.00075 0.00048 0.00058
v  0.00075 0.00024 -0.00052
v  0.00075 0.00048 -0.00052
v  0.0018 0.00024 -0.00052
v  0.0018 0.00048 -0.00052
v  0.0018 0.00024 -0.00032
v  0.0018 0.00048 -0.00032
v  0.00225 0.00024 -0.00032
v  0.00225 0.00048 -0.00032
v  0.00225 0.00024 -0.00182
v  0.00225 0.00048 -0.00182

# 0 UV coordinates

# 7 vertex normals
vn -1 0 0
vn 0 1 0
vn 1 0 0
vn -7.62516e-15 1 -2.89121e-14
vn 0 -1 0
vn 0 0 1
vn 0 0 -1

# Mesh '<STL_BINARY>' with 92 faces
g <STL_BINARY>
usemtl DefaultMaterial
f  1//1 2//1 3//1
f  3//1 2//1 4//1
f  5//2 6//2 1//2
f  1//2 6//2 2//2
f  7//3 8//3 5//3
f  5//3 8//3 6//3
f  9//2 10//2 7//2
f  7//2 10//2 8//4
f  11//1 12//1 9//1
f  9//1 12//1 10//1
f  13//5 14//5 11//5
f  11//5 14//5 12//5
f  15//3 16//3 13//3
f  13//3 16//3 14//3
f  4//2 16//2 3//2
f  3//2 16//2 15//2
f  8//6 10//6 6//6
f  6//6 10//6 12//6
f  6//6 12//6 2//6
f  2//6 12//6 14//6
f  2//6 14//6 4//6
f  4//6 14//6 16//6
f  3//7 15//7 1//7
f  1//7 15//7 13//7
f  1//7 13//7 5//7
f  5//7 13//7 11//7
f  5//7 11//7 7//7
f  7//7 11//7 9//7
f  17//6 18//6 19//6
f  19//6 18//6 20//6
f  21//1 22//1 17//1
f  17//1 22//1 18//1
f  23//7 24//7 21//7
f  21//7 24//7 22//7
f  25//1 26//1 23//1
f  23//1 26//1 24//1
f  27//7 28//7 25//7
f  25//7 28//7 26//7
f  29//3 30//3 27//3
f  27//3 30//3 28//3
f  31//7 32//7 29//7
f  29//7 32//7 30//7
f  20//3 32//3 19//3
f  19//3 32//3 31//3
f  18//5 22//5 20//5
f  20//5 22//5 24//5
f  32//5 20//5 30//5
f  30//5 20//5 24//5
f  30//5 24//5 28//5
f  28//5 24//5 26//5
f  19//2 31//2 17//2
f  17//2 31//2 29//2
f  21//2 17//2 23//2
f  23//2 17//2 29//2
f  23//2 29//2 25//2
f  25//2 29//2 27//2
f  33//1 34//1 35//1
f  35//1 34//1 36//1
f  37//6 38//6 33//6
f  33//6 38//6 34//6
f  39//1 40//1 37//1
f  37//1 40//1 38//1
f  41//6 42//6 39//6
f  39//6 42//6 40//6
f  43//3 44//3 41//3
f  41//3 44//3 42//3
f  45//6 46//6 43//6
f  43//6 46//6 44//6
f  47//1 48//1 45//1
f  45//1 48//1 46//1
f  49//6 50//6 47//6
f  47//6 50//6 48//6
f  51//3 52//3 49//3
f  49//3 52//3 50//3
f  36//7 52//7 35//7
f  35//7 52//7 51//7
f  36//2 34//2 52//2
f  52//2 34//2 38//2
f  46//2 50//2 52//2
f  46//2 52//2 44//2
f  44//2 52//2 38//2
f  44//2 38//2 42//2
f  42//2 38//2 40//2
f  48//2 50//2 46//2
f  37//5 33//5 35//5
f  39//5 37//5 43//5
f  43//5 37//5 35//5
f  43//5 35//5 45//5
f  45//5 35//5 51//5
f  43//5 41//5 39//5
f  45//5 51//5 47//5
f  47//5 51//5 49//5

