# File produced by Open Asset Import Library (http://www.assimp.sf.net)
# (assimp v3.1.187496374)

mtllib FLL3.obj.mtl

# 102 vertex positions
v  2.39481e-06 -0.000119976 -0.00085
v  -2.3948e-06 0.000119976 -0.00085
v  -0.00514658 -0.000222753 -0.00085
v  -0.00515137 1.7199e-05 -0.00085
v  2.39481e-06 -0.000119976 0.00075
v  -2.3948e-06 0.000119976 0.00075
v  0.000502295 -0.000109998 0.00075
v  0.000497506 0.000129954 0.00075
v  0.00130214 -9.40326e-05 -0.00025
v  0.00129735 0.00014592 -0.00025
v  0.00130214 -9.40326e-05 -0.00235
v  0.00129735 0.00014592 -0.00235
v  0.000202355 -0.000115985 -0.00235
v  0.000197565 0.000123967 -0.00235
v  0.000202355 -0.000115985 -0.00185
v  0.000197565 0.000123967 -0.00185
v  2.39481e-06 -0.000119976 -0.00185
v  -2.3948e-06 0.000119976 -0.00185
v  2.39481e-06 -0.000119976 -0.00235
v  -2.3948e-06 0.000119976 -0.00235
v  -0.00249711 -0.000169868 -0.00235
v  -0.0025019 7.00842e-05 -0.00235
v  -0.00249711 -0.000169868 -0.002125
v  -0.0025019 7.00842e-05 -0.002125
v  -0.00299701 -0.000179846 -0.002125
v  -0.0030018 6.01058e-05 -0.002125
v  -0.00299701 -0.000179846 -0.00235
v  -0.0030018 6.01058e-05 -0.00235
v  -0.00399681 -0.000199803 -0.00235
v  -0.0040016 4.01492e-05 -0.00235
v  -0.00514658 -0.000222753 -0.0035
v  -0.00515137 1.7199e-05 -0.0035
v  -0.000347536 -0.000126961 -0.00085
v  -0.000347536 -0.000126961 -0.00235
v  -0.000342746 -0.000366913 -0.00085
v  -0.000342746 -0.000366913 -0.00235
v  0.00130214 -9.40324e-05 -0.00085
v  0.00130693 -0.000333985 -0.00085
v  0.00130214 -9.40324e-05 -0.00235
v  0.00130693 -0.000333985 -0.00235
v  0.000202355 -0.000115985 -0.00235
v  0.000207145 -0.000355937 -0.00235
v  0.000202355 -0.000115985 -0.00135
v  0.000207145 -0.000355937 -0.00135
v  2.39479e-06 -0.000119976 -0.00135
v  7.18439e-06 -0.000359928 -0.00135
v  2.39479e-06 -0.000119976 -0.00235
v  7.18439e-06 -0.000359928 -0.00235
v  -0.00541988 -0.000228208 -0.00390726
v  -0.00578645 -0.000235525 -0.00427519
v  -0.00541509 -0.00046816 -0.00390726
v  -0.00578166 -0.000475477 -0.00427519
v  -0.00576981 -0.000235193 -0.00355826
v  -0.00576502 -0.000475145 -0.00355826
v  -0.00514658 -0.000222753 -0.002916
v  -0.00514179 -0.000462705 -0.002916
v  -0.00514658 -0.000222753 -0.00085
v  -0.00514179 -0.000462705 -0.00085
v  -0.00434674 -0.000206788 -0.00085
v  -0.00434195 -0.00044674 -0.00085
v  -0.00434674 -0.000206788 -0.00454882
v  -0.00434195 -0.00044674 -0.00454882
v  -0.00607961 -0.000241377 -0.00454882
v  -0.00607482 -0.000481329 -0.00454882
v  -0.00641933 -0.000248158 -0.00421
v  -0.00641454 -0.00048811 -0.00421
v  -0.00613638 -0.00024251 -0.00392619
v  -0.00613159 -0.000482462 -0.00392619
v  -0.00291675 0.00266266 -0.00143705
v  -0.00308647 0.00266266 -0.00126736
v  -0.00273424 0.00241172 -0.00125451
v  -0.00290397 0.00241172 -0.00108482
v  -0.00283789 0.00277738 -0.00135818
v  -0.00300762 0.00277738 -0.00118849
v  -0.0026706 0.00254735 -0.00119085
v  -0.00284032 0.00254735 -0.00102116
v  -0.00229351 0.00333985 -0.000813685
v  -0.00246323 0.00333985 -0.000643996
v  8.48614e-05 0.00500676 0.00156516
v  -8.48611e-05 0.00500676 0.00173484
v  8.48615e-05 0.0070152 0.00156516
v  -8.4861e-05 0.0070152 0.00173484
v  -0.00239785 0.00528256 -0.00091805
v  -0.00256757 0.00528256 -0.000748362
v  -0.00367925 0.00341832 -0.0021997
v  -0.00384897 0.00341832 -0.00203001
v  -0.00341563 0.00305585 -0.00193603
v  -0.00358535 0.00305585 -0.00176635
v  -0.00398733 0.00222411 -0.00250785
v  -0.00415705 0.00222411 -0.00233816
v  -0.00425095 0.00258658 -0.00277152
v  -0.00442067 0.00258658 -0.00260183
v  -0.00576891 0.000378179 -0.00428978
v  -0.00593863 0.000378179 -0.0041201
v  -0.00575904 -0.000611672 -0.0042799
v  -0.00592876 -0.000611672 -0.00411022
v  -0.0054091 -0.000604687 -0.00392991
v  -0.00557883 -0.000604687 -0.00376022
v  -0.00541404 -0.000109762 -0.00393484
v  -0.00558377 -0.000109762 -0.00376516
v  -0.00393434 -8.02258e-05 -0.00245484
v  -0.00410406 -8.02258e-05 -0.00228516

# 0 UV coordinates

# 113 vertex normals
vn 0 0 1
vn -0.999801 -0.0199567 -0
vn 0.780713 0.0155834 0.624695
vn 0.780713 0.0155836 0.624695
vn 0.999801 0.0199565 0
vn 0.999801 0.0199565 4.36504e-19
vn 0 0 -1
vn -0.999801 -0.0199567 -0
vn -0.999801 -0.0199567 1.92421e-18
vn 0.999801 0.0199567 0
vn -0.999801 -0.0199565 -0
vn -0.999801 -0.0199565 -2.53636e-18
vn 0.999801 0.0199565 -2.53636e-18
vn 0.706966 0.0141107 -0.707107
vn 0.706966 0.0141121 -0.707107
vn -0.999801 -0.0199555 -0
vn -0.0199567 0.999801 0
vn -0.0199567 0.999801 0
vn -0.0199567 0.999801 0
vn -0.0199567 0.999801 1.55333e-09
vn -0.0199567 0.999801 2.76695e-09
vn -0.0199567 0.999801 1.76524e-09
vn 0.0199567 -0.999801 0
vn 0.0199567 -0.999801 0
vn 0.0199567 -0.999801 2.091e-09
vn 0.0199567 -0.999801 0
vn 0.0199567 -0.999801 0
vn 0.0199567 -0.999801 -1.76184e-18
vn 0.0199567 -0.999801 9.60922e-09
vn -0.999801 -0.0199567 -0
vn 0.999801 0.019957 0
vn 0.999801 0.0199567 0
vn -0.0199567 0.999801 0
vn -0.0199567 0.999801 5.34155e-19
vn -0.0199567 0.999801 4.94409e-09
vn -0.0199567 0.999801 4.84967e-09
vn -0.0199567 0.999801 0
vn -0.0199567 0.999801 -2.15118e-18
vn 0.0199567 -0.999801 0
vn 0.0199567 -0.999801 -3.77702e-18
vn 0.0199566 -0.999801 2.82268e-08
vn 0.0199567 -0.999801 -6.62819e-09
vn 0.0199567 -0.999801 0
vn -0.708206 -0.0141354 0.705864
vn -0.705954 -0.0140919 -0.708118
vn -0.705954 -0.0140905 -0.708117
vn -0.717443 -0.0143198 0.69647
vn -0.717443 -0.0143212 0.69647
vn -0.999801 -0.0199555 -0
vn 0.999801 0.0199575 0
vn -0.705954 -0.0140919 -0.708117
vn -0.705954 -0.0140919 -0.708117
vn -0.707976 -0.0141322 0.706095
vn -0.707976 -0.0141322 0.706095
vn 0.705954 0.0140905 0.708118
vn 0.705954 0.0140919 0.708117
vn -0.0199566 0.999801 6.87104e-09
vn -0.0199566 0.999801 6.57455e-09
vn -0.0199567 0.999801 2.93146e-08
vn -0.0199567 0.999801 -4.9166e-09
vn 0.0199567 -0.999801 4.08052e-09
vn 0.0199567 -0.999801 -1.08065e-08
vn 0.0199566 -0.999801 0
vn 0.0199567 -0.999801 1.76513e-08
vn 0.0199567 -0.999801 -8.26282e-10
vn 0.492846 0.717015 0.492943
vn 0.492845 0.717015 0.492944
vn 0.506955 -0.697058 0.507056
vn 0.506956 -0.697058 0.507057
vn -0.492846 -0.717015 -0.492943
vn -0.492845 -0.717015 -0.492943
vn 0.586572 -0.558328 0.586688
vn 0.313932 -0.896021 0.313994
vn 0.313932 -0.896021 0.313994
vn 0.707036 -7.94107e-08 0.707177
vn 0.707036 -8.19721e-08 0.707177
vn -0.312858 0.896772 -0.312921
vn -0.312858 0.896772 -0.31292
vn -0.506956 0.697058 -0.507056
vn -0.506955 0.697058 -0.507057
vn -0.492846 -0.717015 -0.492943
vn -0.492846 -0.717014 -0.492943
vn -0.506956 0.697058 -0.507056
vn -0.506956 0.697058 -0.507056
vn 0.492845 0.717015 0.492943
vn -0.506954 0.697058 -0.507057
vn -0.506956 0.697058 -0.507056
vn -0.706967 -0.0141112 -0.707106
vn -0.706965 -0.0141119 -0.707108
vn 0.0099778 -0.9999 0.00997977
vn 0.706965 0.0141109 0.707108
vn 0.706967 0.0141119 0.707106
vn 0.00997733 -0.9999 0.00997934
vn 0.584358 -0.562953 0.584474
vn 0.584357 -0.562953 0.584475
vn -0.707177 5.14292e-08 0.707036
vn -0.707177 2.64152e-07 0.707037
vn -0.707177 3.01234e-07 0.707036
vn -0.707177 -9.59097e-08 0.707036
vn -0.707177 1.28675e-07 0.707036
vn -0.707177 -1.63005e-07 0.707037
vn -0.707177 -2.2463e-08 0.707036
vn -0.707177 8.16429e-12 0.707036
vn -0.707177 -2.19198e-08 0.707036
vn -0.707177 -1.73447e-08 0.707036
vn 0.707177 6.83313e-08 -0.707037
vn 0.707177 -9.03365e-08 -0.707036
vn 0.707177 3.37674e-08 -0.707036
vn 0.707177 2.42841e-08 -0.707036
vn 0.707177 -1.2009e-07 -0.707036
vn 0.707177 2.41211e-08 -0.707036
vn 0.707177 -1.80518e-07 -0.707036
vn 0.707177 2.55372e-09 -0.707036

# Mesh '<STL_BINARY>' with 188 faces
g <STL_BINARY>
usemtl DefaultMaterial
f  1//1 2//1 3//1
f  3//1 2//1 4//1
f  5//2 6//2 1//2
f  1//2 6//2 2//2
f  7//1 8//1 5//1
f  5//1 8//1 6//1
f  9//3 10//3 7//3
f  7//3 10//3 8//4
f  11//5 12//5 9//5
f  9//5 12//5 10//6
f  13//7 14//7 11//7
f  11//7 14//7 12//7
f  15//8 16//8 13//8
f  13//8 16//8 14//9
f  17//7 18//7 15//7
f  15//7 18//7 16//7
f  19//10 20//10 17//10
f  17//10 20//10 18//10
f  21//7 22//7 19//7
f  19//7 22//7 20//7
f  23//11 24//11 21//11
f  21//11 24//11 22//12
f  25//7 26//7 23//7
f  23//7 26//7 24//7
f  27//5 28//5 25//5
f  25//5 28//5 26//13
f  29//7 30//7 27//7
f  27//7 30//7 28//7
f  31//14 32//14 29//14
f  29//14 32//14 30//15
f  4//16 32//16 3//16
f  3//16 32//16 31//16
f  20//17 22//17 18//17
f  18//17 22//17 24//17
f  2//18 16//19 18//17
f  2//18 18//17 4//17
f  4//17 18//17 24//17
f  4//17 24//17 26//20
f  26//20 28//17 4//17
f  4//17 28//17 30//21
f  4//17 30//21 32//17
f  6//18 8//18 2//18
f  2//18 8//18 10//22
f  10//22 16//19 2//18
f  10//22 14//19 16//19
f  12//19 14//19 10//22
f  23//23 21//23 19//23
f  19//23 17//23 23//23
f  23//23 17//23 3//24
f  23//23 3//24 25//25
f  1//23 3//24 17//23
f  15//26 1//23 17//23
f  3//24 31//24 29//24
f  25//25 3//24 29//24
f  25//25 29//24 27//27
f  9//28 5//29 1//23
f  9//28 1//23 15//26
f  13//26 11//26 15//26
f  15//26 11//26 9//28
f  7//29 5//29 9//28
f  33//30 34//30 35//30
f  35//30 34//30 36//30
f  37//1 33//1 38//1
f  38//1 33//1 35//1
f  39//31 37//31 40//31
f  40//31 37//31 38//31
f  41//7 39//7 42//7
f  42//7 39//7 40//7
f  43//8 41//8 44//8
f  44//8 41//8 42//8
f  45//7 43//7 46//7
f  46//7 43//7 44//7
f  47//32 45//32 48//32
f  48//32 45//32 46//32
f  34//7 47//7 36//7
f  36//7 47//7 48//7
f  47//33 34//33 45//33
f  45//33 34//33 33//34
f  45//33 33//34 43//35
f  43//35 33//34 37//36
f  43//35 37//36 41//37
f  41//37 37//36 39//38
f  42//39 40//39 44//39
f  44//39 40//39 38//40
f  44//39 38//40 46//41
f  46//41 38//40 35//42
f  46//41 35//42 48//43
f  48//43 35//42 36//43
f  49//44 50//44 51//44
f  51//44 50//44 52//44
f  53//45 49//45 54//45
f  54//45 49//45 51//46
f  55//47 53//47 56//47
f  56//47 53//47 54//48
f  57//49 55//49 58//49
f  58//49 55//49 56//49
f  59//1 57//1 60//1
f  60//1 57//1 58//1
f  61//50 59//50 62//50
f  62//50 59//50 60//50
f  63//7 61//7 64//7
f  64//7 61//7 62//7
f  65//51 63//51 66//51
f  66//51 63//51 64//52
f  67//53 65//53 68//53
f  68//53 65//53 66//54
f  50//55 67//55 52//55
f  52//55 67//55 68//56
f  65//57 67//57 63//57
f  63//57 67//57 50//58
f  63//57 50//58 61//59
f  49//60 61//59 50//58
f  55//60 59//19 61//59
f  55//60 61//59 49//60
f  49//60 53//60 55//60
f  57//19 59//19 55//60
f  52//61 68//61 66//61
f  66//61 64//62 52//61
f  52//61 64//62 62//63
f  52//61 62//63 51//64
f  60//63 58//63 62//63
f  62//63 58//63 56//63
f  51//64 62//63 56//63
f  51//64 56//63 54//65
f  69//66 70//66 71//66
f  71//66 70//66 72//67
f  73//68 74//68 69//68
f  69//68 74//68 70//69
f  75//70 76//70 73//70
f  73//70 76//70 74//71
f  77//72 78//72 75//72
f  75//72 78//72 76//72
f  79//73 80//73 77//73
f  77//73 80//73 78//74
f  81//75 82//75 79//75
f  79//75 82//75 80//76
f  83//77 84//77 81//77
f  81//77 84//77 82//78
f  85//79 86//79 83//79
f  83//79 86//79 84//80
f  87//81 88//81 85//81
f  85//81 88//81 86//82
f  89//83 90//83 87//83
f  87//83 90//83 88//84
f  91//85 92//85 89//85
f  89//85 92//85 90//85
f  93//86 94//86 91//86
f  91//86 94//86 92//87
f  95//88 96//88 93//88
f  93//88 96//88 94//89
f  97//90 98//90 95//90
f  95//90 98//90 96//90
f  99//91 100//91 97//91
f  97//91 100//91 98//92
f  101//93 102//93 99//93
f  99//93 102//93 100//93
f  72//94 102//94 71//94
f  71//94 102//94 101//95
f  100//96 102//96 72//96
f  94//97 98//97 100//96
f  94//97 100//96 70//98
f  70//98 100//96 72//96
f  96//97 98//97 94//97
f  70//98 90//99 94//97
f  94//97 90//99 92//100
f  74//101 88//102 70//98
f  70//98 88//102 90//99
f  76//101 78//103 74//101
f  74//101 78//103 88//102
f  78//103 84//104 88//102
f  88//102 84//104 86//105
f  80//103 82//103 78//103
f  78//103 82//103 84//104
f  99//106 97//106 95//106
f  95//106 93//107 99//106
f  99//106 93//107 89//108
f  99//106 89//108 101//109
f  93//107 91//107 89//108
f  89//108 69//108 71//108
f  69//108 89//108 73//110
f  73//110 89//108 87//111
f  101//109 89//108 71//108
f  77//110 75//110 73//110
f  73//110 87//111 77//110
f  77//110 87//111 85//112
f  83//113 79//113 77//110
f  77//110 85//112 83//113
f  81//113 79//113 83//113

