# File produced by Open Asset Import Library (http://www.assimp.sf.net)
# (assimp v3.1.187496374)

mtllib FLS3.obj.mtl

# 56 vertex positions
v  0.000248818 -0.000134192 -0.000938079
v  0.000248818 0.000105781 -0.000941706
v  0.00234882 -0.000134192 -0.000938079
v  0.00234882 0.000105781 -0.000941706
v  -0.000751182 -0.000122858 -0.000188165
v  -0.000751182 0.000117115 -0.000191792
v  -0.000751182 -0.000119987 1.81344e-06
v  -0.000751182 0.000119986 -1.81343e-06
v  0.000851182 -0.000119987 1.81344e-06
v  0.000851182 0.000119986 -1.81343e-06
v  0.000851182 -3.70218e-05 0.00549119
v  0.000851182 0.000202951 0.00548756
v  0.00347118 -3.70218e-05 0.00549119
v  0.00347118 0.000202951 0.00548756
v  0.00234882 -5.40983e-05 0.00436132
v  0.00234882 0.000185874 0.00435769
v  0.00240862 0.000115844 0.00431935
v  0.00223835 0.000115844 0.00448849
v  5.38102e-05 0.00386628 0.0019488
v  -0.00011646 0.00386628 0.00211794
v  0.00386862 0.000138057 0.00578911
v  0.00369835 0.000138057 0.00595825
v  0.00387354 -0.000356868 0.00579407
v  0.00370327 -0.000356868 0.00596321
v  0.00422233 -0.000349883 0.0061452
v  0.00405206 -0.000349883 0.00631434
v  0.00421249 0.000639968 0.00613529
v  0.00404222 0.000639968 0.00630443
v  0.00139957 0.00485499 0.00330356
v  0.0012293 0.00485499 0.0034727
v  -0.00196605 0.0070152 -8.45696e-05
v  -0.00213632 0.0070152 8.45694e-05
v  -0.00196605 0.00500676 -8.45698e-05
v  -0.00213632 0.00500676 8.45693e-05
v  0.00353713 -2.7653e-05 0.00611106
v  0.00291718 -3.70215e-05 0.00549119
v  0.00353713 -0.000267626 0.00611469
v  0.00291718 -0.000276994 0.00549481
v  0.00389113 -3.30026e-05 0.0057571
v  0.00389113 -0.000272975 0.00576073
v  0.00425527 -2.74997e-05 0.0061212
v  0.00425527 -0.000267472 0.00612483
v  0.00390127 -2.215e-05 0.00647516
v  0.00390127 -0.000262123 0.00647879
v  0.00426118 -1.6711e-05 0.00683503
v  0.00426118 -0.000256684 0.00683866
v  0.00449718 -2.03228e-05 0.00659606
v  0.00449718 -0.000260295 0.00659969
v  0.00452001 -3.17142e-05 0.00584235
v  0.00452001 -0.000271687 0.00584598
v  0.00456765 -4.91111e-05 0.00469128
v  0.00456765 -0.000289084 0.0046949
v  0.000851182 -4.91111e-05 0.00469128
v  0.000851182 -0.000289084 0.0046949
v  0.000851182 -3.70215e-05 0.00549119
v  0.000851182 -0.000276994 0.00549481

# 0 UV coordinates

# 73 vertex normals
vn 0 -0.0151119 -0.999886
vn -0.6 -0.0120896 -0.799909
vn -0.6 -0.0120895 -0.799909
vn -1 0 0
vn 0 0.015112 0.999886
vn 0 0.0151127 0.999886
vn -2.17748e-19 0.0151127 0.999886
vn 0.7095 -0.01065 -0.704625
vn 1 0 0
vn -2.98219e-08 0.999886 -0.015112
vn 0 0.999886 -0.015112
vn 6.04327e-10 0.999886 -0.015112
vn -2.69897e-09 0.999886 -0.015112
vn 8.754e-19 0.999886 -0.015112
vn 0 -0.999886 0.0151119
vn -5.75602e-09 -0.999886 0.015112
vn 0 -0.999886 0.015112
vn 1.29805e-10 -0.999886 0.015112
vn 1.67797e-09 -0.999886 0.015112
vn 0 -0.999886 0.015112
vn -0.526202 -0.665212 -0.52972
vn -0.526202 -0.665212 -0.529721
vn 0.00755621 -0.999943 0.00760676
vn 0.00755623 -0.999943 0.00760675
vn -0.704676 -0.0141116 -0.709389
vn 0.00994503 -0.9999 0.0100115
vn 0.00994502 -0.9999 0.0100115
vn 0.704677 0.0141113 0.709388
vn 0.704676 0.0141109 0.709389
vn 0.511721 0.687583 0.515143
vn 0.511721 0.687583 0.515142
vn 0.290451 0.911122 0.292394
vn 0.290451 0.911122 0.292394
vn -0.704746 4.11224e-08 -0.709459
vn -0.260564 -0.929141 -0.262306
vn -0.260564 -0.929141 -0.262306
vn -0.70946 1.954e-07 0.704746
vn -0.709459 -4.08492e-08 0.704746
vn -0.709459 2.13593e-08 0.704746
vn -0.709459 -1.13318e-07 0.704746
vn -0.709459 9.96279e-08 0.704746
vn 0.709459 5.84979e-08 -0.704746
vn 0.709459 1.22007e-07 -0.704747
vn 0.709459 -4.70483e-08 -0.704746
vn 0.709459 -2.10195e-08 -0.704746
vn 0.709459 4.08492e-08 -0.704746
vn -0.707107 0.0106849 0.707026
vn -0.707107 0.0106863 0.707026
vn 0.707107 0.0106863 0.707026
vn 0.707107 0.0106849 0.707026
vn -0.707107 0.0106863 0.707026
vn -0.707107 0.0106863 0.707026
vn -0.707107 -0.0106863 -0.707026
vn -0.707108 0.0106849 0.707025
vn -0.707107 0.0106863 0.707026
vn 0.711558 0.0106172 0.702547
vn 0.711558 0.0106172 0.702547
vn 0.999542 0.000457482 0.030268
vn 0.999542 0.000457424 0.030268
vn 0.999145 0.00062474 0.0413394
vn 0.999145 0.00062482 0.0413394
vn 0 -0.0151107 -0.999886
vn 0 0.0151126 0.999886
vn 1.25449e-08 0.999886 -0.015112
vn -5.16743e-09 0.999886 -0.015112
vn -1.42527e-09 0.999886 -0.015112
vn -5.88847e-09 0.999886 -0.015112
vn 0 0.999886 -0.015112
vn -1.36427e-09 -0.999886 0.015112
vn 0 -0.999886 0.015112
vn 2.73121e-08 -0.999886 0.015112
vn -1.02081e-08 -0.999886 0.015112
vn -7.25362e-09 -0.999886 0.0151119

# Mesh '<STL_BINARY>' with 100 faces
g <STL_BINARY>
usemtl DefaultMaterial
f  1//1 2//1 3//1
f  3//1 2//1 4//1
f  5//2 6//2 1//2
f  1//2 6//2 2//3
f  7//4 8//4 5//4
f  5//4 8//4 6//4
f  9//5 10//5 7//5
f  7//5 10//5 8//5
f  11//4 12//4 9//4
f  9//4 12//4 10//4
f  13//6 14//6 11//6
f  11//6 14//6 12//7
f  15//8 16//8 13//8
f  13//8 16//8 14//8
f  4//9 16//9 3//9
f  3//9 16//9 15//9
f  6//10 8//10 2//10
f  2//10 8//10 10//11
f  2//10 10//11 4//11
f  4//11 10//11 16//12
f  16//12 10//11 12//13
f  16//12 12//13 14//14
f  9//15 7//15 5//15
f  5//15 1//16 9//15
f  9//15 1//16 3//17
f  9//15 3//17 11//18
f  11//18 3//17 15//19
f  11//18 15//19 13//20
f  17//21 18//21 19//21
f  19//21 18//21 20//22
f  21//23 22//23 17//23
f  17//23 22//23 18//24
f  23//25 24//25 21//25
f  21//25 24//25 22//25
f  25//26 26//26 23//26
f  23//26 26//26 24//27
f  27//28 28//28 25//28
f  25//28 28//28 26//29
f  29//30 30//30 27//30
f  27//30 30//30 28//31
f  31//32 32//32 29//32
f  29//32 32//32 30//33
f  33//34 34//34 31//34
f  31//34 34//34 32//34
f  20//35 34//35 19//35
f  19//35 34//35 33//36
f  22//37 24//37 26//37
f  30//38 18//39 22//37
f  30//38 22//37 28//40
f  28//40 22//37 26//37
f  32//38 34//38 30//38
f  30//38 34//38 20//41
f  20//41 18//39 30//38
f  21//42 17//42 19//42
f  27//43 23//43 21//42
f  27//43 21//42 29//44
f  29//44 21//42 19//42
f  29//44 19//42 31//45
f  31//45 19//42 33//46
f  25//43 23//43 27//43
f  35//47 36//47 37//47
f  37//47 36//47 38//48
f  39//49 35//49 40//49
f  40//49 35//49 37//50
f  41//51 39//51 42//51
f  42//51 39//51 40//52
f  43//53 41//53 44//53
f  44//53 41//53 42//53
f  45//54 43//54 46//54
f  46//54 43//54 44//55
f  47//56 45//56 48//56
f  48//56 45//56 46//57
f  49//58 47//58 50//58
f  50//58 47//58 48//59
f  51//60 49//60 52//60
f  52//60 49//60 50//61
f  53//62 51//62 54//62
f  54//62 51//62 52//62
f  55//4 53//4 56//4
f  56//4 53//4 54//4
f  36//63 55//63 38//63
f  38//63 55//63 56//63
f  41//64 43//64 45//64
f  49//65 39//66 41//64
f  49//65 41//64 47//67
f  47//67 41//64 45//64
f  51//68 39//66 49//65
f  36//66 35//66 39//66
f  51//68 36//66 39//66
f  51//68 53//68 55//68
f  55//68 36//66 51//68
f  40//69 37//69 38//69
f  38//69 52//70 40//69
f  40//69 52//70 42//71
f  56//70 54//70 38//69
f  38//69 54//70 52//70
f  50//72 42//71 52//70
f  48//73 44//73 42//71
f  48//73 42//71 50//72
f  46//73 44//73 48//73

