# File produced by Open Asset Import Library (http://www.assimp.sf.net)
# (assimp v3.1.187496374)

mtllib RLL3.obj.mtl

# 52 vertex positions
v  0.00175 0.00024 -0.00032
v  0.00175 2.58684e-10 -0.00032
v  0.00175 0.00024 -0.00182
v  0.00175 2.58684e-10 -0.00182
v  0.00075 0.00024 -0.00032
v  0.00075 2.58684e-10 -0.00032
v  0.00075 0.00024 0.00058
v  0.00075 2.58684e-10 0.00058
v  -0.00075 0.00024 0.00058
v  -0.00075 2.58684e-10 0.00058
v  -0.00075 0.00024 -0.00052
v  -0.00075 2.58684e-10 -0.00052
v  -0.0018 0.00024 -0.00052
v  -0.0018 2.58684e-10 -0.00052
v  -0.0018 0.00024 -0.00032
v  -0.0018 2.58684e-10 -0.00032
v  -0.00225 0.00024 -0.00032
v  -0.00225 2.58684e-10 -0.00032
v  -0.00225 0.00024 -0.00182
v  -0.00225 2.58684e-10 -0.00182
v  0.00075 -0.00024 0.00058
v  0.00075 -2.58684e-10 0.00058
v  -0.00075 -0.00024 0.00058
v  -0.00075 -2.58684e-10 0.00058
v  0.00075 -0.00024 0.00012
v  0.00075 -2.58684e-10 0.00012
v  0.00031 -0.00024 0.00012
v  0.00031 -2.58684e-10 0.00012
v  0.00031 -0.00024 -0.00046
v  0.00031 -2.58684e-10 -0.00046
v  -0.00031 -0.00024 -0.00046
v  -0.00031 -2.58684e-10 -0.00046
v  -0.00031 -0.00024 0.00012
v  -0.00031 -2.58684e-10 0.00012
v  -0.00075 -0.00024 0.00012
v  -0.00075 -2.58684e-10 0.00012
v  0.00032 -0.00077 -0.00012
v  0.00032 -0.00077 0.00012
v  0.00032 -7.34627e-11 -0.00012
v  0.00032 -7.34627e-11 0.00012
v  -0.00032 -0.00077 -0.00012
v  -0.00032 -0.00077 0.00012
v  -0.00032 -7.34627e-11 -0.00012
v  -0.00032 -7.34627e-11 0.00012
v  -0.00123 -7.34627e-11 -0.00012
v  -0.00123 -7.34627e-11 0.00012
v  -0.00123 -0.00117 -0.00012
v  -0.00123 -0.00117 0.00012
v  0.00123 -0.00117 -0.00012
v  0.00123 -0.00117 0.00012
v  0.00123 -7.34627e-11 -0.00012
v  0.00123 -7.34627e-11 0.00012

# 0 UV coordinates

# 6 vertex normals
vn 1 0 0
vn 0 0 1
vn -1 0 0
vn 0 0 -1
vn 0 -1 0
vn 0 1 0

# Mesh '<STL_BINARY>' with 92 faces
g <STL_BINARY>
usemtl DefaultMaterial
f  1//1 2//1 3//1
f  3//1 2//1 4//1
f  5//2 6//2 1//2
f  1//2 6//2 2//2
f  7//1 8//1 5//1
f  5//1 8//1 6//1
f  9//2 10//2 7//2
f  7//2 10//2 8//2
f  11//3 12//3 9//3
f  9//3 12//3 10//3
f  13//2 14//2 11//2
f  11//2 14//2 12//2
f  15//1 16//1 13//1
f  13//1 16//1 14//1
f  17//2 18//2 15//2
f  15//2 18//2 16//2
f  19//3 20//3 17//3
f  17//3 20//3 18//3
f  4//4 20//4 3//4
f  3//4 20//4 19//4
f  4//5 2//5 20//5
f  20//5 2//5 6//5
f  14//5 18//5 20//5
f  14//5 20//5 12//5
f  12//5 20//5 6//5
f  12//5 6//5 10//5
f  10//5 6//5 8//5
f  16//5 18//5 14//5
f  5//6 1//6 3//6
f  11//6 7//6 5//6
f  11//6 5//6 19//6
f  19//6 5//6 3//6
f  19//6 13//6 11//6
f  9//6 7//6 11//6
f  17//6 15//6 19//6
f  19//6 15//6 13//6
f  21//2 22//2 23//2
f  23//2 22//2 24//2
f  25//1 26//1 21//1
f  21//1 26//1 22//1
f  27//4 28//4 25//4
f  25//4 28//4 26//4
f  29//1 30//1 27//1
f  27//1 30//1 28//1
f  31//4 32//4 29//4
f  29//4 32//4 30//4
f  33//3 34//3 31//3
f  31//3 34//3 32//3
f  35//4 36//4 33//4
f  33//4 36//4 34//4
f  24//3 36//3 23//3
f  23//3 36//3 35//3
f  22//6 26//6 24//6
f  24//6 26//6 28//6
f  36//6 24//6 34//6
f  34//6 24//6 28//6
f  34//6 28//6 32//6
f  32//6 28//6 30//6
f  23//5 35//5 21//5
f  21//5 35//5 33//5
f  25//5 21//5 27//5
f  27//5 21//5 33//5
f  27//5 33//5 29//5
f  29//5 33//5 31//5
f  37//3 38//3 39//3
f  39//3 38//3 40//3
f  41//6 42//6 37//6
f  37//6 42//6 38//6
f  43//1 44//1 41//1
f  41//1 44//1 42//1
f  45//6 46//6 43//6
f  43//6 46//6 44//6
f  47//3 48//3 45//3
f  45//3 48//3 46//3
f  49//5 50//5 47//5
f  47//5 50//5 48//5
f  51//1 52//1 49//1
f  49//1 52//1 50//1
f  40//6 52//6 39//6
f  39//6 52//6 51//6
f  44//2 46//2 42//2
f  42//2 46//2 48//2
f  42//2 48//2 38//2
f  38//2 48//2 50//2
f  38//2 50//2 40//2
f  40//2 50//2 52//2
f  39//4 51//4 37//4
f  37//4 51//4 49//4
f  37//4 49//4 41//4
f  41//4 49//4 47//4
f  41//4 47//4 43//4
f  43//4 47//4 45//4

