# File produced by Open Asset Import Library (http://www.assimp.sf.net)
# (assimp v3.1.187496374)

mtllib RLS3.obj.mtl

# 48 vertex positions
v  0.00053 0.00024 -0.00075
v  0.00053 2.58684e-10 -0.00075
v  -0.000772365 0.00024 -0.00075
v  -0.000772365 2.58684e-10 -0.00075
v  0.00053 0.00024 0.00075
v  0.00053 2.58684e-10 0.00075
v  -0.000772365 0.00024 0.00075
v  -0.000772365 2.58684e-10 0.00075
v  -0.000772365 0.00024 0.0017
v  -0.000772365 2.58684e-10 0.0017
v  -0.00227236 0.00024 0.0017
v  -0.00227236 2.58684e-10 0.0017
v  -0.00227236 0.00024 -0.00125
v  -0.00227236 2.58684e-10 -0.00125
v  -0.000772365 0.00024 -0.00125
v  -0.000772365 2.58684e-10 -0.00125
v  0.00053 -0.00024 -0.00075
v  0.00053 -2.58684e-10 -0.00075
v  0.00053 -0.00024 0.00075
v  0.00053 -2.58684e-10 0.00075
v  0.00012 -0.00024 -0.00075
v  0.00012 -2.58684e-10 -0.00075
v  0.00012 -0.00024 -0.0003
v  0.00012 -2.58684e-10 -0.0003
v  -0.00046 -0.00024 -0.0003
v  -0.00046 -2.58684e-10 -0.0003
v  -0.00046 -0.00024 0.0003
v  -0.00046 -2.58684e-10 0.0003
v  0.00012 -0.00024 0.0003
v  0.00012 -2.58684e-10 0.0003
v  0.00012 -0.00024 0.00075
v  0.00012 -2.58684e-10 0.00075
v  0.00012 -0.00078 -0.00032
v  -0.00012 -0.00078 -0.00032
v  0.00012 -0.00078 0.00032
v  -0.00012 -0.00078 0.00032
v  0.00012 2.51529e-11 -0.00032
v  -0.00012 2.51529e-11 -0.00032
v  0.00012 2.51529e-11 -0.00123
v  -0.00012 2.51529e-11 -0.00123
v  0.00012 -0.00117 -0.00123
v  -0.00012 -0.00117 -0.00123
v  0.00012 -0.00117 0.00123
v  -0.00012 -0.00117 0.00123
v  0.00012 2.51529e-11 0.00123
v  -0.00012 2.51529e-11 0.00123
v  0.00012 2.51529e-11 0.00032
v  -0.00012 2.51529e-11 0.00032

# 0 UV coordinates

# 9 vertex normals
vn -0 -0 -1
vn 1 0 0
vn 0 0 1
vn -1 0 0
vn 0 -1 0
vn 0 1 0
vn 0 1 1.90629e-15
vn 7.22802e-15 1 -4.07918e-31
vn 7.22802e-15 1 1.90629e-15

# Mesh '<STL_BINARY>' with 84 faces
g <STL_BINARY>
usemtl DefaultMaterial
f  1//1 2//1 3//1
f  3//1 2//1 4//1
f  5//2 6//2 1//2
f  1//2 6//2 2//2
f  7//3 8//3 5//3
f  5//3 8//3 6//3
f  9//2 10//2 7//2
f  7//2 10//2 8//2
f  11//3 12//3 9//3
f  9//3 12//3 10//3
f  13//4 14//4 11//4
f  11//4 14//4 12//4
f  15//1 16//1 13//1
f  13//1 16//1 14//1
f  4//2 16//2 3//2
f  3//2 16//2 15//2
f  14//5 16//5 12//5
f  12//5 16//5 4//5
f  10//5 12//5 8//5
f  8//5 12//5 4//5
f  8//5 4//5 6//5
f  6//5 4//5 2//5
f  3//6 15//6 13//6
f  7//6 1//6 3//6
f  7//6 3//6 11//6
f  11//6 3//6 13//6
f  11//6 9//6 7//6
f  5//6 1//6 7//6
f  17//2 18//2 19//2
f  19//2 18//2 20//2
f  21//1 22//1 17//1
f  17//1 22//1 18//1
f  23//4 24//4 21//4
f  21//4 24//4 22//4
f  25//1 26//1 23//1
f  23//1 26//1 24//1
f  27//4 28//4 25//4
f  25//4 28//4 26//4
f  29//3 30//3 27//3
f  27//3 30//3 28//3
f  31//4 32//4 29//4
f  29//4 32//4 30//4
f  20//3 32//3 19//3
f  19//3 32//3 31//3
f  18//6 22//6 20//6
f  20//6 22//6 24//6
f  32//6 20//6 30//6
f  30//6 20//6 24//6
f  30//6 24//6 28//6
f  28//6 24//6 26//6
f  19//5 31//5 17//5
f  17//5 31//5 29//5
f  21//5 17//5 23//5
f  23//5 17//5 29//5
f  23//5 29//5 25//5
f  25//5 29//5 27//5
f  33//6 34//6 35//6
f  35//6 34//6 36//6
f  37//3 38//3 33//3
f  33//3 38//3 34//3
f  39//7 40//7 37//7
f  37//7 40//7 38//8
f  41//1 42//1 39//1
f  39//1 42//1 40//1
f  43//5 44//5 41//5
f  41//5 44//5 42//5
f  45//3 46//3 43//3
f  43//3 46//3 44//3
f  47//9 48//9 45//9
f  45//9 48//9 46//9
f  36//1 48//1 35//1
f  35//1 48//1 47//1
f  38//4 40//4 34//4
f  34//4 40//4 42//4
f  34//4 42//4 36//4
f  36//4 42//4 44//4
f  36//4 44//4 48//4
f  48//4 44//4 46//4
f  47//2 45//2 35//2
f  35//2 45//2 43//2
f  35//2 43//2 33//2
f  33//2 43//2 41//2
f  33//2 41//2 37//2
f  37//2 41//2 39//2

