# File produced by Open Asset Import Library (http://www.assimp.sf.net)
# (assimp v3.1.187496374)

mtllib RLS4.obj.mtl

# 58 vertex positions
v  -0.00025 0.00012 -0.000937635
v  -0.00025 -0.00012 -0.000937635
v  -0.00235 0.00012 -0.000937635
v  -0.00235 -0.00012 -0.000937635
v  0.00075 0.00012 -0.000187635
v  0.00075 -0.00012 -0.000187635
v  0.00075 0.00012 3.15045e-19
v  0.00075 -0.00012 3.03165e-19
v  -0.00085 0.00012 3.44535e-19
v  -0.00085 -0.00012 3.32655e-19
v  -0.00085 0.00012 0.00549236
v  -0.00085 -0.00012 0.00549236
v  -0.00085 0.00012 4.2585e-19
v  -0.00085 -0.00012 4.1397e-19
v  -0.00347 0.00012 0.00549236
v  -0.00347 -0.00012 0.00549236
v  -0.00235 0.00012 0.00437236
v  -0.00235 -0.00012 0.00437236
v  -0.00359508 -0.00036 0.0061798
v  -0.00290764 -0.00036 0.00549236
v  -0.00359508 -0.00012 0.0061798
v  -0.00290764 -0.00012 0.00549236
v  -0.00394264 -0.00036 0.00583225
v  -0.00394264 -0.00012 0.00583225
v  -0.0042902 -0.00036 0.0061798
v  -0.0042902 -0.00012 0.0061798
v  -0.00394264 -0.00036 0.00652736
v  -0.00394264 -0.00012 0.00652736
v  -0.0042902 -0.00036 0.00687492
v  -0.0042902 -0.00012 0.00687492
v  -0.00456647 -0.00036 0.00659865
v  -0.00456647 -0.00012 0.00659865
v  -0.00456647 -0.00036 0.00469236
v  -0.00456647 -0.00012 0.00469236
v  -0.00085 -0.00036 0.00469236
v  -0.00085 -0.00012 0.00469236
v  -0.00085 -0.00036 0.00549236
v  -0.00085 -0.00012 0.00549236
v  -0.00230641 1.61528e-10 0.00452848
v  -0.00247611 1.61528e-10 0.00435877
v  1.8591e-05 0.00379716 0.00220348
v  -0.000151115 0.00379716 0.00203377
v  -0.00377641 1.61528e-10 0.00599848
v  -0.00394611 1.61528e-10 0.00582877
v  -0.00377641 -0.000494975 0.00599848
v  -0.00394611 -0.000494975 0.00582877
v  -0.00412404 -0.000494975 0.00634611
v  -0.00429375 -0.000494975 0.00617641
v  -0.00412404 0.000494975 0.00634611
v  -0.00429375 0.000494975 0.00617641
v  -0.00134404 0.0047659 0.00356611
v  -0.00151375 0.0047659 0.00339641
v  0.00201096 0.00699329 0.000211115
v  0.00184125 0.00699329 4.1409e-05
v  0.00196751 0.00504775 -8.48528e-05
v  0.00213722 0.00504775 8.48528e-05
v  0.00196751 0.00699329 -8.48527e-05
v  0.00213722 0.00699329 8.48529e-05

# 0 UV coordinates

# 35 vertex normals
vn -0 -0 -1
vn 0.6 0 -0.8
vn 1 0 0
vn 1.84314e-17 -4.95005e-17 1
vn 1.84314e-17 -4.95006e-17 1
vn 0 0 1
vn -0.707107 -0 -0.707107
vn -1 0 0
vn 0 -1 0
vn 0 1 0
vn 0.707107 0 0.707107
vn -0.707107 0 0.707107
vn -0.707107 -1.26515e-16 0.707107
vn 0.707107 0 0.707106
vn 0.707107 1.26515e-16 0.707106
vn 0.707107 0 -0.707107
vn -0.707107 0 0.707107
vn 0.53455 -0.654609 -0.53455
vn 0.53455 -0.654609 -0.534549
vn 0.707107 9.97845e-07 -0.707107
vn 0.707106 1.33046e-06 -0.707107
vn -0.707107 -6.6523e-07 0.707107
vn -0.520244 0.677268 0.520244
vn -0.300487 0.905216 0.300487
vn -0.300487 0.905216 0.300487
vn 0.272367 -0.92284 -0.272366
vn 0.272367 -0.92284 -0.272366
vn -0.707107 0 -0.707107
vn -0.707107 9.28536e-08 -0.707107
vn -0.707107 2.13345e-08 -0.707107
vn -0.707106 4.23112e-08 -0.707107
vn 0.707107 1.59989e-07 0.707107
vn 0.707107 -3.83215e-08 0.707107
vn 0.707107 -4.23111e-08 0.707107
vn 0.707107 4.23111e-08 -0.707107

# Mesh '<STL_BINARY>' with 100 faces
g <STL_BINARY>
usemtl DefaultMaterial
f  1//1 2//1 3//1
f  3//1 2//1 4//1
f  5//2 6//2 1//2
f  1//2 6//2 2//2
f  7//3 8//3 5//3
f  5//3 8//3 6//3
f  9//4 10//4 7//4
f  7//4 10//4 8//5
f  11//3 12//3 13//3
f  13//3 12//3 14//3
f  15//6 16//6 11//6
f  11//6 16//6 12//6
f  17//7 18//7 15//7
f  15//7 18//7 16//7
f  4//8 18//8 3//8
f  3//8 18//8 17//8
f  6//9 8//9 2//9
f  2//9 8//9 14//9
f  2//9 14//9 4//9
f  4//9 14//9 18//9
f  18//9 14//9 12//9
f  18//9 12//9 16//9
f  13//10 7//10 5//10
f  5//10 1//10 13//10
f  13//10 1//10 3//10
f  13//10 3//10 11//10
f  11//10 3//10 17//10
f  11//10 17//10 15//10
f  19//11 20//11 21//11
f  21//11 20//11 22//11
f  23//12 19//12 24//12
f  24//12 19//12 21//13
f  25//14 23//14 26//14
f  26//14 23//14 24//15
f  27//16 25//16 28//16
f  28//16 25//16 26//16
f  29//11 27//11 30//11
f  30//11 27//11 28//11
f  31//17 29//17 32//17
f  32//17 29//17 30//17
f  33//8 31//8 34//8
f  34//8 31//8 32//8
f  35//1 33//1 36//1
f  36//1 33//1 34//1
f  37//3 35//3 38//3
f  38//3 35//3 36//3
f  20//6 37//6 22//6
f  22//6 37//6 38//6
f  25//9 27//9 29//9
f  29//9 31//9 25//9
f  25//9 31//9 33//9
f  25//9 33//9 23//9
f  35//9 37//9 33//9
f  33//9 37//9 20//9
f  23//9 33//9 20//9
f  23//9 20//9 19//9
f  30//10 28//10 32//10
f  32//10 28//10 26//10
f  32//10 26//10 34//10
f  24//10 34//10 26//10
f  22//10 36//10 34//10
f  22//10 34//10 24//10
f  24//10 21//10 22//10
f  38//10 36//10 22//10
f  39//18 40//18 41//18
f  41//18 40//18 42//19
f  43//9 44//9 39//9
f  39//9 44//9 40//9
f  45//20 46//20 43//20
f  43//20 46//20 44//21
f  47//9 48//9 45//9
f  45//9 48//9 46//9
f  49//22 50//22 47//22
f  47//22 50//22 48//22
f  51//23 52//23 49//23
f  49//23 52//23 50//23
f  53//24 54//24 51//24
f  51//24 54//24 52//25
f  42//26 55//26 41//26
f  41//26 55//26 56//27
f  44//28 46//28 48//28
f  52//29 40//30 44//28
f  52//29 44//28 50//28
f  50//28 44//28 48//28
f  42//29 52//29 55//29
f  55//29 52//29 54//28
f  42//29 40//30 52//29
f  55//29 54//28 57//31
f  43//11 39//11 41//11
f  49//11 45//11 43//11
f  49//11 43//11 51//32
f  51//32 43//11 41//11
f  51//32 41//11 53//11
f  53//11 41//11 56//33
f  53//11 56//33 58//34
f  47//11 45//11 49//11
f  55//35 57//35 56//35
f  56//35 57//35 58//35
f  57//10 54//10 58//10
f  58//10 54//10 53//10

