# File produced by Open Asset Import Library (http://www.assimp.sf.net)
# (assimp v3.1.187496374)

mtllib FLS2.obj.mtl

# 28 vertex positions
v  -0.00012 0.00607215 0.000751768
v  0.00012 0.00607215 0.000751768
v  -0.00012 0.00744215 0.000751768
v  0.00012 0.00744215 0.000751768
v  -0.00012 0.00607215 0.00337177
v  0.00012 0.00607215 0.00337177
v  -0.00012 0.00744215 0.00337177
v  0.00012 0.00744215 0.00337177
v  -0.00012 0.00744215 0.00286177
v  0.00012 0.00744215 0.00286177
v  -0.00012 0.008 0.00286177
v  0.00012 0.008 0.00286177
v  -0.00012 0.008 0.00376177
v  0.00012 0.008 0.00376177
v  -0.00012 0.00528 0.00376177
v  0.00012 0.00528 0.00376177
v  -0.00012 -3.7998e-10 0.000871464
v  0.00012 -3.7998e-10 0.000871464
v  -0.00012 -3.7998e-10 -0.000871464
v  0.00012 -3.7998e-10 -0.000871464
v  -0.00012 0.00498 0.000361768
v  0.00012 0.00498 0.000361768
v  -0.00012 0.008 0.000361768
v  0.00012 0.008 0.000361768
v  -0.00012 0.008 0.00126177
v  0.00012 0.008 0.00126177
v  -0.00012 0.00744215 0.00126177
v  0.00012 0.00744215 0.00126177

# 0 UV coordinates

# 11 vertex normals
vn 0 0 1
vn 0 1 0
vn 0 0 -1
vn 0 -1 0
vn 5.55309e-14 -0.480171 0.877175
vn 0 -0.480171 0.877175
vn 0 -1 -1.59247e-14
vn 1.15648e-13 -1 0
vn 0 0.240376 -0.97068
vn 1 0 0
vn -1 0 0

# Mesh '<STL_BINARY>' with 52 faces
g <STL_BINARY>
usemtl DefaultMaterial
f  1//1 2//1 3//1
f  3//1 2//1 4//1
f  5//2 6//2 1//2
f  1//2 6//2 2//2
f  7//3 8//3 5//3
f  5//3 8//3 6//3
f  9//4 10//4 7//4
f  7//4 10//4 8//4
f  11//3 12//3 9//3
f  9//3 12//3 10//3
f  13//2 14//2 11//2
f  11//2 14//2 12//2
f  15//1 16//1 13//1
f  13//1 16//1 14//1
f  17//5 18//5 15//5
f  15//5 18//5 16//6
f  19//7 20//7 17//7
f  17//7 20//7 18//8
f  21//9 22//9 19//9
f  19//9 22//9 20//9
f  23//3 24//3 21//3
f  21//3 24//3 22//3
f  25//2 26//2 23//2
f  23//2 26//2 24//2
f  27//1 28//1 25//1
f  25//1 28//1 26//1
f  4//4 28//4 3//4
f  3//4 28//4 27//4
f  26//10 28//10 24//10
f  24//10 28//10 4//10
f  24//10 4//10 22//10
f  22//10 4//10 2//10
f  22//10 2//10 6//10
f  6//10 16//10 22//10
f  22//10 16//10 20//10
f  8//10 14//10 6//10
f  6//10 14//10 16//10
f  16//10 18//10 20//10
f  8//10 12//10 14//10
f  10//10 12//10 8//10
f  21//11 19//11 17//11
f  1//11 23//11 21//11
f  1//11 21//11 15//11
f  15//11 21//11 17//11
f  15//11 5//11 1//11
f  3//11 23//11 1//11
f  3//11 25//11 23//11
f  27//11 25//11 3//11
f  15//11 7//11 5//11
f  13//11 7//11 15//11
f  13//11 9//11 7//11
f  11//11 9//11 13//11

