# File produced by Open Asset Import Library (http://www.assimp.sf.net)
# (assimp v3.1.187496374)

mtllib FLL4.obj.mtl

# 104 vertex positions
v  1.43751e-10 -0.00012 -0.00085
v  1.43751e-10 0.00012 -0.00085
v  -0.00515 -0.00012 -0.00085
v  -0.00515 0.00012 -0.00085
v  1.43751e-10 -0.00012 0.00075
v  1.43751e-10 0.00012 0.00075
v  0.0005 -0.00012 0.00075
v  0.0005 0.00012 0.00075
v  1.43751e-10 -0.00012 0.00075
v  1.43751e-10 0.00012 0.00075
v  0.0013 -0.00012 -0.00025
v  0.0013 0.00012 -0.00025
v  0.0013 -0.00012 -0.00235
v  0.0013 0.00012 -0.00235
v  0.0002 -0.00012 -0.00235
v  0.0002 0.00012 -0.00235
v  0.0002 -0.00012 -0.00185
v  0.0002 0.00012 -0.00185
v  1.43751e-10 -0.00012 -0.00185
v  1.43751e-10 0.00012 -0.00185
v  1.43751e-10 -0.00012 -0.00235
v  1.43751e-10 0.00012 -0.00235
v  -0.0025 -0.00012 -0.00235
v  -0.0025 0.00012 -0.00235
v  -0.0025 -0.00012 -0.002125
v  -0.0025 0.00012 -0.002125
v  -0.003 -0.00012 -0.002125
v  -0.003 0.00012 -0.002125
v  -0.003 -0.00012 -0.00235
v  -0.003 0.00012 -0.00235
v  -0.004 -0.00012 -0.00235
v  -0.004 0.00012 -0.00235
v  -0.00515 -0.00012 -0.0035
v  -0.00515 0.00012 -0.0035
v  -0.00035 -0.00012 -0.00085
v  -0.00035 -0.00012 -0.00235
v  -0.00035 -0.00036 -0.00085
v  -0.00035 -0.00036 -0.00235
v  0.0013 -0.00012 -0.00085
v  0.0013 -0.00036 -0.00085
v  0.0013 -0.00012 -0.00235
v  0.0013 -0.00036 -0.00235
v  0.0002 -0.00012 -0.00235
v  0.0002 -0.00036 -0.00235
v  0.0002 -0.00012 -0.00135
v  0.0002 -0.00036 -0.00135
v  1.35742e-10 -0.00012 -0.00135
v  1.35742e-10 -0.00036 -0.00135
v  1.35742e-10 -0.00012 -0.00235
v  1.35742e-10 -0.00036 -0.00235
v  -0.00542336 -0.00012 -0.00392533
v  -0.00579012 -0.00012 -0.00429209
v  -0.00542336 -0.00036 -0.00392533
v  -0.00579012 -0.00036 -0.00429209
v  -0.00577336 -0.00012 -0.00357533
v  -0.00577336 -0.00036 -0.00357533
v  -0.00515 -0.00012 -0.00295197
v  -0.00515 -0.00036 -0.00295197
v  -0.00515 -0.00012 -0.00085
v  -0.00515 -0.00036 -0.00085
v  -0.00436781 -0.00012 -0.00085
v  -0.00436781 -0.00036 -0.00085
v  -0.00436781 -0.00012 -0.00454882
v  -0.00436781 -0.00036 -0.00454882
v  -0.00610102 -0.00012 -0.00454882
v  -0.00610102 -0.00036 -0.00454882
v  -0.00642393 -0.00012 -0.00422591
v  -0.00642393 -0.00036 -0.00422591
v  -0.00614012 -0.00012 -0.00394209
v  -0.00614012 -0.00036 -0.00394209
v  -0.0029063 0.0027223 -0.001426
v  -0.003076 0.0027223 -0.0012563
v  -0.0027263 0.00246774 -0.001246
v  -0.002896 0.00246774 -0.0010763
v  -0.00282629 0.00283544 -0.001346
v  -0.002996 0.00283544 -0.0011763
v  -0.00266129 0.0026021 -0.001181
v  -0.002831 0.0026021 -0.0010113
v  -0.00227629 0.00338698 -0.000796001
v  -0.002446 0.00338698 -0.000626295
v  -8.48525e-05 0.00498337 0.00173485
v  8.48531e-05 0.00498337 0.00156515
v  -0.00236125 0.00533159 -0.00088096
v  -0.00253096 0.00533159 -0.000711255
v  8.4853e-05 0.00697822 0.00156515
v  -8.48526e-05 0.00697822 0.00173485
v  -0.00366125 0.00349311 -0.00218096
v  -0.00383096 0.00349311 -0.00201125
v  -0.00340125 0.00312541 -0.00192096
v  -0.00357096 0.00312541 -0.00175125
v  -0.00398125 0.00230517 -0.00250096
v  -0.00415096 0.00230517 -0.00233125
v  -0.00424125 0.00267286 -0.00276096
v  -0.00441096 0.00267286 -0.00259125
v  -0.00578125 0.000494975 -0.00430096
v  -0.00595096 0.000494975 -0.00413125
v  -0.00578125 -0.000494975 -0.00430096
v  -0.00595096 -0.000494975 -0.00413125
v  -0.00543125 -0.000494975 -0.00395096
v  -0.00560096 -0.000494975 -0.00378125
v  -0.00543125 -7.84962e-17 -0.00395096
v  -0.00560096 -7.84962e-17 -0.00378125
v  -0.00395125 -7.50268e-17 -0.00247096
v  -0.00412096 -7.50268e-17 -0.00230125

# 0 UV coordinates

# 43 vertex normals
vn 0 0 1
vn -1 0 0
vn 0.780869 0 0.624695
vn 1 0 0
vn 0 0 -1
vn 0.707107 0 -0.707107
vn 0 1 0
vn 0 -1 0
vn -0.707107 0 0.707107
vn -0.707106 -0 -0.707107
vn -0.707106 -1.27234e-16 -0.707107
vn -0.707107 0 0.707107
vn -0.707107 -0 -0.707106
vn -0.707107 -1.19323e-16 -0.707106
vn 0.707107 0 0.707107
vn 0.5 0.707107 0.5
vn 0.5 -0.707107 0.5
vn -0.5 -0.707107 -0.5
vn 0.581001 -0.56998 0.581001
vn 0.304991 -0.902198 0.304991
vn -0.30391 0.902927 -0.30391
vn -0.5 0.707107 -0.5
vn -0.5 0.707107 -0.5
vn -0.5 0.707107 -0.5
vn -0.707107 0 -0.707107
vn 4.98922e-07 -1 4.98923e-07
vn 4.98922e-07 -1 4.98922e-07
vn 0.707106 0 0.707107
vn 1.17211e-15 -1 1.17211e-15
vn 1.17211e-15 -1 1.17211e-15
vn 0.578741 -0.57456 0.578741
vn -0.707107 0 0.707107
vn -0.707107 -2.14893e-07 0.707107
vn -0.707107 6.36835e-08 0.707107
vn -0.707107 -9.28846e-08 0.707107
vn -0.707107 4.19059e-08 0.707107
vn -0.707107 4.25504e-08 0.707107
vn -0.707107 -8.95502e-08 0.707107
vn 0.707107 -4.24899e-08 -0.707107
vn 0.707107 6.99727e-08 -0.707107
vn 0.707107 9.28846e-08 -0.707107
vn 0.707107 6.48568e-10 -0.707107
vn 0.707107 8.25306e-08 0.707107

# Mesh '<STL_BINARY>' with 188 faces
g <STL_BINARY>
usemtl DefaultMaterial
f  1//1 2//1 3//1
f  3//1 2//1 4//1
f  5//2 6//2 1//2
f  1//2 6//2 2//2
f  7//1 8//1 9//1
f  9//1 8//1 10//1
f  11//3 12//3 7//3
f  7//3 12//3 8//3
f  13//4 14//4 11//4
f  11//4 14//4 12//4
f  15//5 16//5 13//5
f  13//5 16//5 14//5
f  17//2 18//2 15//2
f  15//2 18//2 16//2
f  19//5 20//5 17//5
f  17//5 20//5 18//5
f  21//4 22//4 19//4
f  19//4 22//4 20//4
f  23//5 24//5 21//5
f  21//5 24//5 22//5
f  25//2 26//2 23//2
f  23//2 26//2 24//2
f  27//5 28//5 25//5
f  25//5 28//5 26//5
f  29//4 30//4 27//4
f  27//4 30//4 28//4
f  31//5 32//5 29//5
f  29//5 32//5 30//5
f  33//6 34//6 31//6
f  31//6 34//6 32//6
f  4//2 34//2 3//2
f  3//2 34//2 33//2
f  22//7 24//7 20//7
f  20//7 24//7 26//7
f  2//7 18//7 20//7
f  2//7 20//7 4//7
f  4//7 20//7 26//7
f  4//7 26//7 28//7
f  28//7 30//7 4//7
f  4//7 30//7 32//7
f  4//7 32//7 34//7
f  10//7 8//7 2//7
f  2//7 8//7 12//7
f  12//7 18//7 2//7
f  12//7 16//7 18//7
f  14//7 16//7 12//7
f  25//8 23//8 21//8
f  21//8 19//8 25//8
f  25//8 19//8 3//8
f  25//8 3//8 27//8
f  1//8 3//8 19//8
f  17//8 1//8 19//8
f  3//8 33//8 31//8
f  27//8 3//8 31//8
f  27//8 31//8 29//8
f  11//8 9//8 1//8
f  11//8 1//8 17//8
f  15//8 13//8 17//8
f  17//8 13//8 11//8
f  7//8 9//8 11//8
f  35//2 36//2 37//2
f  37//2 36//2 38//2
f  39//1 35//1 40//1
f  40//1 35//1 37//1
f  41//4 39//4 42//4
f  42//4 39//4 40//4
f  43//5 41//5 44//5
f  44//5 41//5 42//5
f  45//2 43//2 46//2
f  46//2 43//2 44//2
f  47//5 45//5 48//5
f  48//5 45//5 46//5
f  49//4 47//4 50//4
f  50//4 47//4 48//4
f  36//5 49//5 38//5
f  38//5 49//5 50//5
f  49//7 36//7 47//7
f  47//7 36//7 35//7
f  47//7 35//7 45//7
f  45//7 35//7 39//7
f  45//7 39//7 43//7
f  43//7 39//7 41//7
f  44//8 42//8 46//8
f  46//8 42//8 40//8
f  46//8 40//8 48//8
f  48//8 40//8 37//8
f  48//8 37//8 50//8
f  50//8 37//8 38//8
f  51//9 52//9 53//9
f  53//9 52//9 54//9
f  55//10 51//10 56//10
f  56//10 51//10 53//11
f  57//12 55//12 58//12
f  58//12 55//12 56//12
f  59//2 57//2 60//2
f  60//2 57//2 58//2
f  61//1 59//1 62//1
f  62//1 59//1 60//1
f  63//4 61//4 64//4
f  64//4 61//4 62//4
f  65//5 63//5 66//5
f  66//5 63//5 64//5
f  67//13 65//13 68//13
f  68//13 65//13 66//14
f  69//9 67//9 70//9
f  70//9 67//9 68//9
f  52//15 69//15 54//15
f  54//15 69//15 70//15
f  67//7 69//7 65//7
f  65//7 69//7 52//7
f  65//7 52//7 63//7
f  51//7 63//7 52//7
f  57//7 61//7 63//7
f  57//7 63//7 51//7
f  51//7 55//7 57//7
f  59//7 61//7 57//7
f  54//8 70//8 68//8
f  68//8 66//8 54//8
f  54//8 66//8 64//8
f  54//8 64//8 53//8
f  62//8 60//8 64//8
f  64//8 60//8 58//8
f  53//8 64//8 58//8
f  53//8 58//8 56//8
f  71//16 72//16 73//16
f  73//16 72//16 74//16
f  75//17 76//17 71//17
f  71//17 76//17 72//17
f  77//18 78//18 75//18
f  75//18 78//18 76//18
f  79//19 80//19 77//19
f  77//19 80//19 78//19
f  80//20 79//20 81//20
f  81//20 79//20 82//20
f  83//21 84//21 85//21
f  85//21 84//21 86//21
f  87//22 88//22 83//22
f  83//22 88//22 84//22
f  89//18 90//18 87//18
f  87//18 90//18 88//18
f  91//23 92//23 89//23
f  89//23 92//23 90//23
f  93//16 94//16 91//16
f  91//16 94//16 92//16
f  95//24 96//24 93//24
f  93//24 96//24 94//24
f  97//25 98//25 95//25
f  95//25 98//25 96//25
f  99//26 100//26 97//26
f  97//26 100//26 98//27
f  101//28 102//28 99//28
f  99//28 102//28 100//28
f  103//29 104//29 101//29
f  101//29 104//29 102//30
f  74//31 104//31 73//31
f  73//31 104//31 103//31
f  102//9 104//9 74//9
f  96//32 100//32 102//9
f  96//32 102//9 72//33
f  72//33 102//9 74//9
f  98//32 100//32 96//32
f  72//33 92//34 96//32
f  96//32 92//34 94//9
f  76//35 90//36 72//33
f  72//33 90//36 92//34
f  78//35 80//9 76//35
f  76//35 80//9 90//36
f  80//9 84//37 90//36
f  90//36 84//37 88//38
f  81//9 86//9 80//9
f  80//9 86//9 84//37
f  101//6 99//6 97//6
f  97//6 95//6 101//6
f  101//6 95//6 91//39
f  101//6 91//39 103//40
f  95//6 93//6 91//39
f  91//39 71//39 73//39
f  71//39 91//39 75//41
f  75//41 91//39 89//42
f  103//40 91//39 73//39
f  79//41 77//41 75//41
f  75//41 89//42 79//41
f  79//41 89//42 87//6
f  83//6 82//6 79//41
f  79//41 87//6 83//6
f  85//6 82//6 83//6
f  86//43 81//43 85//43
f  85//43 81//43 82//43

