# File produced by Open Asset Import Library (http://www.assimp.sf.net)
# (assimp v3.1.187496374)

mtllib FRS3.obj.mtl

# 48 vertex positions
v  0.00012 0.00078 0.00032
v  -0.00012 0.00078 0.00032
v  0.00012 0.00078 -0.00032
v  -0.00012 0.00078 -0.00032
v  0.00012 -2.51529e-11 0.00032
v  -0.00012 -2.51529e-11 0.00032
v  0.00012 -2.5153e-11 0.00123
v  -0.00012 -2.51529e-11 0.00123
v  0.00012 0.00117 0.00123
v  -0.00012 0.00117 0.00123
v  0.00012 0.00117 -0.00123
v  -0.00012 0.00117 -0.00123
v  0.00012 -2.51529e-11 -0.00123
v  -0.00012 -2.51529e-11 -0.00123
v  0.00012 -2.51529e-11 -0.00032
v  -0.00012 -2.51529e-11 -0.00032
v  -0.00053 2.58684e-10 0.00075
v  -0.00053 0.00024 0.00075
v  -0.00053 2.58684e-10 -0.00075
v  -0.00053 0.00024 -0.00075
v  -0.00012 2.58684e-10 0.00075
v  -0.00012 0.00024 0.00075
v  -0.00012 2.58684e-10 0.0003
v  -0.00012 0.00024 0.0003
v  0.00046 2.58684e-10 0.0003
v  0.00046 0.00024 0.0003
v  0.00046 2.58684e-10 -0.0003
v  0.00046 0.00024 -0.0003
v  -0.00012 2.58684e-10 -0.0003
v  -0.00012 0.00024 -0.0003
v  -0.00012 2.58684e-10 -0.00075
v  -0.00012 0.00024 -0.00075
v  -0.00053 -0.00024 -0.000750001
v  -0.00053 2.23517e-10 -0.000750001
v  0.000772365 -0.00024 -0.000750001
v  0.000772365 2.23517e-10 -0.000750001
v  -0.00053 -0.00024 0.000749999
v  -0.00053 2.23517e-10 0.000749999
v  0.000772365 -0.00024 0.000749999
v  0.000772365 2.23517e-10 0.000749999
v  0.000772365 -0.00024 0.0017
v  0.000772365 2.23517e-10 0.0017
v  0.00227236 -0.00024 0.0017
v  0.00227236 2.23517e-10 0.0017
v  0.00227236 -0.00024 -0.00125
v  0.00227236 2.23517e-10 -0.00125
v  0.000772365 -0.00024 -0.00125
v  0.000772365 2.23517e-10 -0.00125

# 0 UV coordinates

# 12 vertex normals
vn -0 -1 -0
vn 0 0 -1
vn -7.22802e-15 -1 -1.90629e-15
vn 0 0 1
vn 0 1 0
vn -1.4456e-14 -1 -1.90629e-15
vn 1 0 0
vn -1 0 0
vn 0 1 -4.70433e-15
vn -9.25186e-15 1 -4.99987e-30
vn 0 1 -9.25186e-15
vn -1.20325e-30 1 -9.25186e-15

# Mesh '<STL_BINARY>' with 84 faces
g <STL_BINARY>
usemtl DefaultMaterial
f  1//1 2//1 3//1
f  3//1 2//1 4//1
f  5//2 6//2 1//2
f  1//2 6//2 2//2
f  7//3 8//3 5//3
f  5//3 8//3 6//3
f  9//4 10//4 7//4
f  7//4 10//4 8//4
f  11//5 12//5 9//5
f  9//5 12//5 10//5
f  13//2 14//2 11//2
f  11//2 14//2 12//2
f  15//6 16//6 13//6
f  13//6 16//6 14//6
f  15//4 3//4 16//4
f  16//4 3//4 4//4
f  15//7 13//7 3//7
f  3//7 13//7 11//7
f  3//7 11//7 1//7
f  1//7 11//7 9//7
f  1//7 9//7 5//7
f  5//7 9//7 7//7
f  6//8 8//8 2//8
f  2//8 8//8 10//8
f  2//8 10//8 4//8
f  4//8 10//8 12//8
f  4//8 12//8 16//8
f  16//8 12//8 14//8
f  17//8 18//8 19//8
f  19//8 18//8 20//8
f  21//4 22//4 17//4
f  17//4 22//4 18//4
f  23//7 24//7 21//7
f  21//7 24//7 22//7
f  25//4 26//4 23//4
f  23//4 26//4 24//4
f  27//7 28//7 25//7
f  25//7 28//7 26//7
f  29//2 30//2 27//2
f  27//2 30//2 28//2
f  31//7 32//7 29//7
f  29//7 32//7 30//7
f  31//2 19//2 32//2
f  32//2 19//2 20//2
f  19//1 31//1 17//1
f  17//1 31//1 29//1
f  21//1 17//1 23//1
f  23//1 17//1 29//1
f  23//1 29//1 25//1
f  25//1 29//1 27//1
f  18//5 22//5 20//5
f  20//5 22//5 24//5
f  32//5 20//5 30//5
f  30//5 20//5 24//5
f  30//5 24//5 28//5
f  28//5 24//5 26//5
f  33//2 34//2 35//2
f  35//2 34//2 36//2
f  37//8 38//8 33//8
f  33//8 38//8 34//8
f  39//4 40//4 37//4
f  37//4 40//4 38//4
f  41//8 42//8 39//8
f  39//8 42//8 40//8
f  43//4 44//4 41//4
f  41//4 44//4 42//4
f  45//7 46//7 43//7
f  43//7 46//7 44//7
f  47//2 48//2 45//2
f  45//2 48//2 46//2
f  47//8 35//8 48//8
f  48//8 35//8 36//8
f  35//1 47//1 45//1
f  39//1 33//1 35//1
f  39//1 35//1 43//1
f  43//1 35//1 45//1
f  43//1 41//1 39//1
f  37//1 33//1 39//1
f  46//9 48//9 44//9
f  44//9 48//9 36//10
f  42//5 44//9 40//5
f  40//5 44//9 36//10
f  40//5 36//10 38//11
f  38//11 36//10 34//12

